<?xml version="1.0" encoding="UTF-8"?>
<!DOCTYPE svg PUBLIC "-//W3C//DTD SVG 1.1//EN" "http://www.w3.org/Graphics/SVG/1.1/DTD/svg11.dtd">
<svg xmlns="http://www.w3.org/2000/svg" version="1.1" width="1095px" height="830px" style="shape-rendering:geometricPrecision; text-rendering:geometricPrecision; image-rendering:optimizeQuality; fill-rule:evenodd; clip-rule:evenodd" xmlns:xlink="http://www.w3.org/1999/xlink">
<g><path style="opacity:1" fill="#bd5148" d="M -0.5,-0.5 C 364.5,-0.5 729.5,-0.5 1094.5,-0.5C 1094.5,276.167 1094.5,552.833 1094.5,829.5C 729.5,829.5 364.5,829.5 -0.5,829.5C -0.5,552.833 -0.5,276.167 -0.5,-0.5 Z"/></g>
<g><path style="opacity:1" fill="#f9edec" d="M 539.5,388.5 C 540.166,381.174 540.5,373.674 540.5,366C 540.497,358.136 539.831,350.636 538.5,343.5C 536.06,340.886 533.227,338.886 530,337.5C 521.652,340.014 513.152,340.847 504.5,340C 495.224,338.06 490.224,332.393 489.5,323C 491.085,316.235 491.585,309.402 491,302.5C 486.317,295.635 483.15,288.135 481.5,280C 482.12,268.239 487.787,260.073 498.5,255.5C 502.594,244.575 509.927,236.742 520.5,232C 522.833,231.333 525.167,231.333 527.5,232C 540.613,238.857 554.613,242.523 569.5,243C 578.049,244.517 584.883,248.684 590,255.5C 591.336,258.009 592.17,260.676 592.5,263.5C 590.699,268.382 589.866,273.382 590,278.5C 601.829,287.562 603.663,298.396 595.5,311C 588.525,314.318 581.692,317.818 575,321.5C 574.574,342.621 564.241,350.954 544,346.5C 543.528,367.847 543.195,389.18 543,410.5C 547.566,400.531 553.732,391.697 561.5,384C 571.342,377.243 581.675,371.243 592.5,366C 597.678,362.578 602.678,358.911 607.5,355C 608.448,354.517 609.448,354.351 610.5,354.5C 603.198,377.275 591.198,397.108 574.5,414C 565.248,421.696 554.581,425.529 542.5,425.5C 542.5,431.167 542.5,436.833 542.5,442.5C 541.167,442.5 539.833,442.5 538.5,442.5C 539.065,429.841 539.398,417.174 539.5,404.5C 533.225,404.033 527.558,401.866 522.5,398C 511.725,389.237 503.225,378.737 497,366.5C 495.921,363.937 495.421,361.271 495.5,358.5C 496.552,358.351 497.552,358.517 498.5,359C 510.784,370.804 524.451,380.637 539.5,388.5 Z"/></g>
<g><path style="opacity:1" fill="#bd5249" d="M 519.5,235.5 C 522.187,235.336 524.854,235.503 527.5,236C 531.984,237.743 536.317,239.743 540.5,242C 552.081,243.183 563.415,245.516 574.5,249C 588.406,255.202 591.406,265.036 583.5,278.5C 596.538,284.596 600.038,294.262 594,307.5C 592.833,308.667 591.667,309.833 590.5,311C 584.139,314.116 577.639,316.616 571,318.5C 572.231,343.297 561.731,350.463 539.5,340C 537.26,337.419 534.76,335.252 532,333.5C 500.349,344.177 487.682,333.177 494,300.5C 490.966,294.814 487.966,289.147 485,283.5C 484.229,272.876 488.396,264.71 497.5,259C 499.433,258.749 501.266,258.249 503,257.5C 505.304,247.705 510.804,240.372 519.5,235.5 Z"/></g>
<g><path style="opacity:1" fill="#f9edec" d="M 521.5,252.5 C 524.794,252.259 527.794,253.092 530.5,255C 534.618,257.473 538.451,260.306 542,263.5C 550.837,257.546 558.17,259.212 564,268.5C 564.752,271.894 564.585,275.227 563.5,278.5C 571.396,281.964 574.23,287.964 572,296.5C 569.775,302.719 565.275,306.219 558.5,307C 562.755,319.09 558.422,324.423 545.5,323C 543.291,321.127 541.458,318.96 540,316.5C 531.968,322.146 524.302,321.812 517,315.5C 513.998,311.368 513.831,307.202 516.5,303C 511.667,299.666 507.667,295.5 504.5,290.5C 508.836,284.667 513.669,279.333 519,274.5C 519.667,273.167 519.667,271.833 519,270.5C 513.872,263.61 514.705,257.61 521.5,252.5 Z"/></g>
<g><path style="opacity:1" fill="#be534a" d="M 525.5,257.5 C 527.655,257.372 529.655,257.872 531.5,259C 534.793,262.639 538.46,265.806 542.5,268.5C 548.939,261.676 555.106,262.009 561,269.5C 561.167,270.667 561.333,271.833 561.5,273C 560.386,276.274 559.053,279.44 557.5,282.5C 567.157,281.658 570.99,285.991 569,295.5C 568.654,297.848 567.487,299.681 565.5,301C 561.27,302.29 556.936,302.79 552.5,302.5C 554.533,306.077 556.2,309.911 557.5,314C 556.167,319.333 552.834,321.333 547.5,320C 544.725,317.597 542.725,314.763 541.5,311.5C 536.32,316.058 530.32,317.558 523.5,316C 515.865,311.978 515.531,307.478 522.5,302.5C 519.87,300.179 516.87,298.346 513.5,297C 508.347,293.07 508.181,288.903 513,284.5C 516.367,280.797 520.034,277.464 524,274.5C 524.667,273.5 524.667,272.5 524,271.5C 521.705,269.874 520.205,267.707 519.5,265C 521.154,262.174 523.154,259.674 525.5,257.5 Z"/></g>
<g><path style="opacity:1" fill="#f8eae9" d="M 538.5,278.5 C 552.176,280.67 554.176,286.837 544.5,297C 536.564,301.198 531.231,299.031 528.5,290.5C 530.062,284.945 533.395,280.945 538.5,278.5 Z"/></g>
<g><path style="opacity:1" fill="#bf554c" d="M 538.5,282.5 C 544.496,281.333 546.996,283.666 546,289.5C 543.158,295.668 538.825,297.002 533,293.5C 532.333,291.5 532.333,289.5 533,287.5C 534.73,285.598 536.563,283.931 538.5,282.5 Z"/></g>
<g><path style="opacity:1" fill="#be534a" d="M 602.5,362.5 C 603.239,362.369 603.906,362.536 604.5,363C 598.388,376.736 590.888,389.57 582,401.5C 571.943,414.444 558.777,421.444 542.5,422.5C 542.337,420.143 542.503,417.81 543,415.5C 548,408.167 553,400.833 558,393.5C 562.199,388.966 566.699,384.799 571.5,381C 582.228,375.311 592.561,369.144 602.5,362.5 Z"/></g>
<g><path style="opacity:1" fill="#bf564d" d="M 500.5,365.5 C 512.517,375.598 525.35,384.598 539,392.5C 539.497,395.146 539.664,397.813 539.5,400.5C 537.143,400.663 534.81,400.497 532.5,400C 518.29,391.715 507.623,380.215 500.5,365.5 Z"/></g>
<g><path style="opacity:1" fill="#e2b2ae" d="M 538.5,343.5 C 539.831,350.636 540.497,358.136 540.5,366C 540.5,373.674 540.166,381.174 539.5,388.5C 539.816,373.422 539.483,358.422 538.5,343.5 Z"/></g>
<g><path style="opacity:1" fill="#fcf6f5" d="M 341.5,478.5 C 366.351,476.52 378.184,487.854 377,512.5C 370.356,532.739 356.856,539.572 336.5,533C 321.119,522.507 317.285,508.674 325,491.5C 329.166,485.35 334.666,481.017 341.5,478.5 Z"/></g>
<g><path style="opacity:1" fill="#fcf7f6" d="M 409.5,498.5 C 409.44,497.957 409.107,497.624 408.5,497.5C 407.516,500.428 407.183,503.428 407.5,506.5C 407.334,513.841 407.5,521.174 408,528.5C 409.356,530.409 410.856,532.076 412.5,533.5C 406.729,534.113 401.396,533.446 396.5,531.5C 399.703,531.318 401.536,529.652 402,526.5C 403.111,510.841 404.111,495.174 405,479.5C 406.587,478.273 407.921,478.606 409,480.5C 416.079,494.326 423.412,507.992 431,521.5C 437.969,507.562 444.969,493.562 452,479.5C 453.049,478.483 454.216,478.316 455.5,479C 456.294,495.466 457.46,511.966 459,528.5C 460.264,530.607 462.097,531.607 464.5,531.5C 464.5,532.5 464.5,533.5 464.5,534.5C 457.825,534.666 451.158,534.5 444.5,534C 444.043,533.586 443.709,533.086 443.5,532.5C 445.422,531.289 447.255,529.956 449,528.5C 449.654,518.447 449.154,508.447 447.5,498.5C 441.332,509.833 435.999,521.499 431.5,533.5C 429.856,533.714 428.356,533.38 427,532.5C 420.885,521.27 415.052,509.937 409.5,498.5 Z"/></g>
<g><path style="opacity:1" fill="#eac4c1" d="M 485.5,479.5 C 498.167,479.5 510.833,479.5 523.5,479.5C 523.737,480.791 523.404,481.791 522.5,482.5C 510.367,480.84 498.034,479.84 485.5,479.5 Z"/></g>
<g><path style="opacity:1" fill="#fcf7f6" d="M 559.5,478.5 C 566.255,477.565 572.422,478.898 578,482.5C 578.329,485.186 577.329,487.186 575,488.5C 571.111,485.724 566.778,484.057 562,483.5C 552.093,486.019 550.926,490.853 558.5,498C 566.676,501.831 573.843,506.998 580,513.5C 581.189,527.485 574.689,534.818 560.5,535.5C 556.307,535.602 552.307,534.769 548.5,533C 544.806,529.885 544.806,526.718 548.5,523.5C 552.888,527.24 557.888,529.573 563.5,530.5C 571.043,530.461 574.543,526.795 574,519.5C 567.092,514.295 559.926,509.462 552.5,505C 546.137,499.787 544.971,493.621 549,486.5C 551.975,482.952 555.475,480.286 559.5,478.5 Z"/></g>
<g><path style="opacity:1" fill="#f1d7d6" d="M 629.5,480.5 C 619.494,480.334 609.494,480.5 599.5,481C 600.056,481.383 600.389,481.883 600.5,482.5C 598.952,482.179 598.285,481.179 598.5,479.5C 609.014,479.172 619.347,479.506 629.5,480.5 Z"/></g>
<g><path style="opacity:1" fill="#fbf3f3" d="M 678.5,531.5 C 673.265,533.45 667.598,534.117 661.5,533.5C 663.893,531.514 666.06,529.181 668,526.5C 675.178,511.149 681.511,495.482 687,479.5C 690.086,477.78 692.419,478.447 694,481.5C 700.472,497.248 707.138,512.915 714,528.5C 715.264,530.607 717.097,531.607 719.5,531.5C 719.5,532.5 719.5,533.5 719.5,534.5C 712.5,534.5 705.5,534.5 698.5,534.5C 700.06,532.184 701.394,529.684 702.5,527C 702.435,524.474 701.768,522.141 700.5,520C 692.5,519.333 684.5,519.333 676.5,520C 673.243,523.553 672.91,527.22 675.5,531C 676.448,531.483 677.448,531.649 678.5,531.5 Z"/></g>
<g><path style="opacity:1" fill="#fcf5f5" d="M 757.5,478.5 C 765.756,477.787 773.756,478.787 781.5,481.5C 782.512,483.837 782.345,486.17 781,488.5C 780.275,489.059 779.442,489.392 778.5,489.5C 771.5,484.891 763.833,483.391 755.5,485C 746.149,490.565 742.983,498.731 746,509.5C 749.915,522.753 758.748,528.919 772.5,528C 776.139,526.675 779.806,525.508 783.5,524.5C 783.607,526.903 782.607,528.736 780.5,530C 766.244,538.397 753.41,536.564 742,524.5C 731.544,503.771 736.711,488.437 757.5,478.5 Z"/></g>
<g><path style="opacity:1" fill="#fbf5f4" d="M 244.5,479.5 C 251.833,479.5 259.167,479.5 266.5,479.5C 266.5,480.5 266.5,481.5 266.5,482.5C 263.675,482.081 261.509,483.081 260,485.5C 259.5,491.825 259.334,498.158 259.5,504.5C 268.833,504.5 278.167,504.5 287.5,504.5C 287.666,498.158 287.5,491.825 287,485.5C 285.266,483.549 283.099,482.549 280.5,482.5C 280.5,481.5 280.5,480.5 280.5,479.5C 287.833,479.5 295.167,479.5 302.5,479.5C 302.5,480.5 302.5,481.5 302.5,482.5C 300.097,482.393 298.264,483.393 297,485.5C 296.333,499.833 296.333,514.167 297,528.5C 298.264,530.607 300.097,531.607 302.5,531.5C 302.5,532.5 302.5,533.5 302.5,534.5C 295.492,534.666 288.492,534.5 281.5,534C 281.043,533.586 280.709,533.086 280.5,532.5C 281.912,531.194 283.579,530.36 285.5,530C 286.126,529.25 286.626,528.416 287,527.5C 287.667,521.833 287.667,516.167 287,510.5C 278,509.167 269,509.167 260,510.5C 259.333,516.167 259.333,521.833 260,527.5C 261.145,530.477 263.312,532.144 266.5,532.5C 266.291,533.086 265.957,533.586 265.5,534C 258.508,534.5 251.508,534.666 244.5,534.5C 244.5,533.5 244.5,532.5 244.5,531.5C 246.903,531.607 248.736,530.607 250,528.5C 250.667,514.167 250.667,499.833 250,485.5C 248.736,483.393 246.903,482.393 244.5,482.5C 244.5,481.5 244.5,480.5 244.5,479.5 Z"/></g>
<g><path style="opacity:1" fill="#fcf5f5" d="M 485.5,479.5 C 498.034,479.84 510.367,480.84 522.5,482.5C 522.167,485.167 521.833,487.833 521.5,490.5C 518.891,490.17 517.224,488.67 516.5,486C 498.78,479.719 492.78,485.719 498.5,504C 504.811,505.05 510.811,504.216 516.5,501.5C 517.492,501.328 518.158,501.662 518.5,502.5C 517.442,506.284 515.609,509.618 513,512.5C 508.565,508.601 503.565,507.601 498,509.5C 497.333,515.167 497.333,520.833 498,526.5C 498.374,527.416 498.874,528.25 499.5,529C 504.833,529.667 510.167,529.667 515.5,529C 519.121,527.369 522.121,525.035 524.5,522C 525.448,521.517 526.448,521.351 527.5,521.5C 527.236,530.769 522.57,535.102 513.5,534.5C 502.628,534.158 491.961,533.158 481.5,531.5C 483.781,530.793 485.948,529.793 488,528.5C 488.667,514.167 488.667,499.833 488,485.5C 486.758,484.128 485.258,483.128 483.5,482.5C 482.614,481.675 482.281,480.675 482.5,479.5C 483.5,479.5 484.5,479.5 485.5,479.5 Z"/></g>
<g><path style="opacity:1" fill="#fcf7f7" d="M 629.5,480.5 C 643.744,483.653 647.91,491.987 642,505.5C 638.603,509.949 634.103,512.449 628.5,513C 623.845,513.499 619.179,513.666 614.5,513.5C 614.334,518.511 614.501,523.511 615,528.5C 617.433,530.626 620.266,531.959 623.5,532.5C 623.376,533.107 623.043,533.44 622.5,533.5C 614.427,534.132 606.76,533.465 599.5,531.5C 602.079,531.148 603.913,529.814 605,527.5C 605.667,513.833 605.667,500.167 605,486.5C 604.208,484.356 602.708,483.023 600.5,482.5C 600.389,481.883 600.056,481.383 599.5,481C 609.494,480.5 619.494,480.334 629.5,480.5 Z"/></g>
<g><path style="opacity:1" fill="#fbf4f4" d="M 801.5,479.5 C 815.167,479.5 828.833,479.5 842.5,479.5C 842.873,483.665 841.873,487.332 839.5,490.5C 834.763,483.946 828.429,481.779 820.5,484C 819.667,484.833 818.833,485.667 818,486.5C 817.333,492.167 817.333,497.833 818,503.5C 824.923,505.34 831.423,504.34 837.5,500.5C 837.833,501 838.167,501.5 838.5,502C 836.73,505.366 835.397,508.866 834.5,512.5C 831.86,512.046 829.527,510.879 827.5,509C 824.183,508.502 820.85,508.335 817.5,508.5C 817.334,514.842 817.5,521.175 818,527.5C 828.444,531.57 837.611,529.57 845.5,521.5C 847.208,529.422 844.041,533.755 836,534.5C 824.164,533.93 812.331,533.263 800.5,532.5C 803.344,531.284 805.844,529.617 808,527.5C 808.667,513.5 808.667,499.5 808,485.5C 806.266,483.549 804.099,482.549 801.5,482.5C 801.5,481.5 801.5,480.5 801.5,479.5 Z"/></g>
<g><path style="opacity:1" fill="#bd5249" d="M 341.5,483.5 C 353.863,482.602 362.363,487.935 367,499.5C 369.41,508.097 368.743,516.43 365,524.5C 353.735,533.425 343.735,532.091 335,520.5C 329.993,510.732 329.327,500.732 333,490.5C 335.441,487.546 338.275,485.213 341.5,483.5 Z"/></g>
<g><path style="opacity:1" fill="#bd5249" d="M 616.5,483.5 C 632.031,483.206 637.531,490.539 633,505.5C 631.59,506.787 630.09,507.954 628.5,509C 623.845,509.499 619.179,509.666 614.5,509.5C 614.334,501.493 614.5,493.493 615,485.5C 615.717,484.956 616.217,484.289 616.5,483.5 Z"/></g>
<g><path style="opacity:1" fill="#bf554c" d="M 687.5,492.5 C 689.335,493.122 690.502,494.456 691,496.5C 693.466,502.424 695.632,508.424 697.5,514.5C 691.132,514.83 684.798,514.496 678.5,513.5C 681.79,506.59 684.79,499.59 687.5,492.5 Z"/></g>
<g><path style="opacity:1" fill="#e1adaa" d="M 516.5,501.5 C 517.386,500.224 518.386,500.224 519.5,501.5C 519.376,502.107 519.043,502.44 518.5,502.5C 518.158,501.662 517.492,501.328 516.5,501.5 Z"/></g>
<g><path style="opacity:1" fill="#e6bcb8" d="M 409.5,498.5 C 408.833,501.167 408.167,503.833 407.5,506.5C 407.183,503.428 407.516,500.428 408.5,497.5C 409.107,497.624 409.44,497.957 409.5,498.5 Z"/></g>
<g><path style="opacity:1" fill="#eccbc9" d="M 396.5,531.5 C 401.396,533.446 406.729,534.113 412.5,533.5C 407.025,534.489 401.358,534.822 395.5,534.5C 395.263,533.209 395.596,532.209 396.5,531.5 Z"/></g>
<g><path style="opacity:1" fill="#db9f9a" d="M 481.5,531.5 C 491.961,533.158 502.628,534.158 513.5,534.5C 502.5,534.5 491.5,534.5 480.5,534.5C 480.263,533.209 480.596,532.209 481.5,531.5 Z"/></g>
<g><path style="opacity:1" fill="#ecccc9" d="M 599.5,531.5 C 606.76,533.465 614.427,534.132 622.5,533.5C 614.684,534.492 606.684,534.826 598.5,534.5C 598.263,533.209 598.596,532.209 599.5,531.5 Z"/></g>
<g><path style="opacity:1" fill="#eccbc8" d="M 678.5,531.5 C 679.404,532.209 679.737,533.209 679.5,534.5C 673.31,534.823 667.31,534.49 661.5,533.5C 667.598,534.117 673.265,533.45 678.5,531.5 Z"/></g>
<g><path style="opacity:1" fill="#cb746d" d="M 547.5,570.5 C 541.974,570.179 536.64,570.512 531.5,571.5C 530.957,571.44 530.624,571.107 530.5,570.5C 536.32,569.184 541.987,569.184 547.5,570.5 Z"/></g>
<g><path style="opacity:1" fill="#d38b86" d="M 610.5,570.5 C 617.344,569.181 624.344,569.181 631.5,570.5C 631.376,571.107 631.043,571.44 630.5,571.5C 624.021,570.509 617.354,570.176 610.5,570.5 Z"/></g>
<g><path style="opacity:1" fill="#d38b85" d="M 699.5,570.5 C 706.344,569.181 713.344,569.181 720.5,570.5C 720.376,571.107 720.043,571.44 719.5,571.5C 713.021,570.509 706.354,570.176 699.5,570.5 Z"/></g>
<g><path style="opacity:1" fill="#cb756e" d="M 758.5,570.5 C 752.974,570.179 747.64,570.512 742.5,571.5C 741.957,571.44 741.624,571.107 741.5,570.5C 747.32,569.184 752.987,569.184 758.5,570.5 Z"/></g>
<g><path style="opacity:1" fill="#f7e8e7" d="M 428.5,569.5 C 429.675,569.281 430.675,569.614 431.5,570.5C 434.098,576.459 436.598,582.459 439,588.5C 439.637,590.303 440.803,591.636 442.5,592.5C 439.5,593.833 436.5,593.833 433.5,592.5C 435.636,591.148 435.97,589.482 434.5,587.5C 430.955,586.209 427.455,586.209 424,587.5C 423.316,589.479 423.816,591.146 425.5,592.5C 422.833,593.833 420.167,593.833 417.5,592.5C 418.76,591.618 419.926,590.618 421,589.5C 423.81,582.897 426.31,576.23 428.5,569.5 Z"/></g>
<g><path style="opacity:1" fill="#fdfbfb" d="M 481.5,588.5 C 482.338,588.842 482.672,589.508 482.5,590.5C 482.167,591.5 481.5,592.167 480.5,592.5C 475.305,592.821 470.305,592.487 465.5,591.5C 466.117,591.389 466.617,591.056 467,590.5C 467.667,584.5 467.667,578.5 467,572.5C 466.25,571.874 465.416,571.374 464.5,571C 467.5,570.333 470.5,570.333 473.5,571C 472.584,571.374 471.75,571.874 471,572.5C 470.333,578.5 470.333,584.5 471,590.5C 474.986,592.032 478.486,591.365 481.5,588.5 Z"/></g>
<g><path style="opacity:1" fill="#f8eae8" d="M 610.5,570.5 C 617.354,570.176 624.021,570.509 630.5,571.5C 630.719,572.675 630.386,573.675 629.5,574.5C 627.49,572.829 625.157,572.162 622.5,572.5C 622.5,578.833 622.5,585.167 622.5,591.5C 623.675,591.281 624.675,591.614 625.5,592.5C 621.833,593.833 618.167,593.833 614.5,592.5C 615.628,591.738 616.795,591.071 618,590.5C 618.499,584.509 618.666,578.509 618.5,572.5C 615.315,572.02 612.481,572.686 610,574.5C 609.235,572.934 609.402,571.601 610.5,570.5 Z"/></g>
<g><path style="opacity:1" fill="#f8eae9" d="M 663.5,569.5 C 664.496,569.414 665.329,569.748 666,570.5C 668.714,578.26 672.214,585.593 676.5,592.5C 673.833,593.833 671.167,593.833 668.5,592.5C 670.57,587.563 668.903,585.563 663.5,586.5C 661.833,586.833 660.167,587.167 658.5,587.5C 657.03,589.482 657.364,591.148 659.5,592.5C 657.167,593.833 654.833,593.833 652.5,592.5C 657.108,585.377 660.774,577.71 663.5,569.5 Z"/></g>
<g><path style="opacity:1" fill="#f8ebea" d="M 699.5,570.5 C 706.354,570.176 713.021,570.509 719.5,571.5C 719.042,574.15 718.042,574.65 716.5,573C 714.527,572.505 712.527,572.338 710.5,572.5C 710.334,578.509 710.501,584.509 711,590.5C 712.205,591.071 713.372,591.738 714.5,592.5C 710.833,593.833 707.167,593.833 703.5,592.5C 704.325,591.614 705.325,591.281 706.5,591.5C 706.5,585.167 706.5,578.833 706.5,572.5C 703.635,572.055 701.135,572.722 699,574.5C 698.235,572.934 698.402,571.601 699.5,570.5 Z"/></g>
<g><path style="opacity:1" fill="#f9edec" d="M 332.5,571.5 C 336.981,570.352 341.648,570.185 346.5,571C 350.104,572.334 351.271,574.834 350,578.5C 348.647,579.685 347.48,581.019 346.5,582.5C 348.938,586.442 351.938,589.942 355.5,593C 353.833,593.667 352.167,593.667 350.5,593C 347.87,589.368 344.87,586.035 341.5,583C 340.552,582.517 339.552,582.351 338.5,582.5C 338.336,585.187 338.503,587.854 339,590.5C 340.205,591.071 341.372,591.738 342.5,592.5C 339.167,593.833 335.833,593.833 332.5,592.5C 333.75,589.193 334.416,585.693 334.5,582C 334.333,578.833 334.167,575.667 334,572.5C 333.617,571.944 333.117,571.611 332.5,571.5 Z"/></g>
<g><path style="opacity:1" fill="#fcf7f6" d="M 394.5,588.5 C 395.338,588.842 395.672,589.508 395.5,590.5C 395.167,591.167 394.833,591.833 394.5,592.5C 388.974,592.821 383.64,592.488 378.5,591.5C 379.117,591.389 379.617,591.056 380,590.5C 380.83,584.472 380.664,578.472 379.5,572.5C 378.692,572.192 378.025,571.692 377.5,571C 383.196,570.17 388.863,570.337 394.5,571.5C 394.024,574.201 393.024,574.701 391.5,573C 388.854,572.503 386.187,572.336 383.5,572.5C 383.5,575.167 383.5,577.833 383.5,580.5C 386.681,580.258 389.681,580.258 392.5,580.5C 392.135,581.902 391.301,582.902 390,583.5C 387.901,582.713 385.734,582.38 383.5,582.5C 383.223,585.448 383.556,588.281 384.5,591C 388.406,591.969 391.739,591.136 394.5,588.5 Z"/></g>
<g><path style="opacity:1" fill="#faefef" d="M 531.5,571.5 C 536.64,570.512 541.974,570.179 547.5,570.5C 547.762,571.978 547.429,573.311 546.5,574.5C 543.788,572.74 540.788,572.073 537.5,572.5C 537.5,575.167 537.5,577.833 537.5,580.5C 540.553,580.319 543.553,580.152 546.5,580C 545.845,581.487 544.845,582.653 543.5,583.5C 541.591,582.652 539.591,582.318 537.5,582.5C 536.643,592.114 540.31,594.114 548.5,588.5C 549.809,590.24 549.476,591.573 547.5,592.5C 542.305,592.821 537.305,592.487 532.5,591.5C 533.624,585.248 533.79,578.915 533,572.5C 532.617,571.944 532.117,571.611 531.5,571.5 Z"/></g>
<g><path style="opacity:1" fill="#f9efee" d="M 742.5,571.5 C 747.64,570.512 752.974,570.179 758.5,570.5C 758.821,573.88 757.821,574.713 755.5,573C 753.19,572.503 750.857,572.337 748.5,572.5C 748.5,575.167 748.5,577.833 748.5,580.5C 751.685,580.98 754.519,580.314 757,578.5C 757.264,580.639 756.431,582.306 754.5,583.5C 752.591,582.652 750.591,582.318 748.5,582.5C 748.336,585.187 748.503,587.854 749,590.5C 753.369,592.268 757.035,591.268 760,587.5C 760.877,589.674 760.377,591.341 758.5,592.5C 753.305,592.821 748.305,592.487 743.5,591.5C 744.624,585.248 744.79,578.915 744,572.5C 743.617,571.944 743.117,571.611 742.5,571.5 Z"/></g>
<g><path style="opacity:1" fill="#c25e54" d="M 339.5,571.5 C 345.292,571.779 347.292,574.612 345.5,580C 343.323,581.202 340.989,581.702 338.5,581.5C 338.253,578.061 338.586,574.728 339.5,571.5 Z"/></g>
<g><path style="opacity:1" fill="#f8e9e8" d="M 577.5,569.5 C 579.527,569.338 581.527,569.505 583.5,570C 585.497,571.153 585.83,572.653 584.5,574.5C 582.133,572.605 579.466,572.105 576.5,573C 575.978,573.561 575.645,574.228 575.5,575C 579.144,578.26 582.977,581.427 587,584.5C 587.753,588.493 586.253,591.326 582.5,593C 579.833,593.667 577.167,593.667 574.5,593C 572.015,591.777 571.848,590.277 574,588.5C 577.712,592.37 581.212,592.37 584.5,588.5C 584.392,587.558 584.059,586.725 583.5,586C 579.56,584.114 576.06,581.614 573,578.5C 572.333,577.167 572.333,575.833 573,574.5C 574.193,572.503 575.693,570.836 577.5,569.5 Z"/></g>
<g><path style="opacity:1" fill="#c0574e" d="M 432.5,583.5 C 430.393,584.468 428.059,584.802 425.5,584.5C 427.509,574.605 429.842,574.272 432.5,583.5 Z"/></g>
<g><path style="opacity:1" fill="#c0574e" d="M 666.5,582.5 C 666.03,583.693 665.03,584.36 663.5,584.5C 662.274,584.48 661.274,584.147 660.5,583.5C 662.379,573.845 664.379,573.512 666.5,582.5 Z"/></g>
<g><path style="opacity:1" fill="#db9e99" d="M 432.5,583.5 C 433.043,583.56 433.376,583.893 433.5,584.5C 430.691,585.8 428.024,585.8 425.5,584.5C 428.059,584.802 430.393,584.468 432.5,583.5 Z"/></g>
<g><path style="opacity:1" fill="#d99792" d="M 666.5,582.5 C 667.404,583.209 667.737,584.209 667.5,585.5C 664.753,585.813 662.086,585.48 659.5,584.5C 659.624,583.893 659.957,583.56 660.5,583.5C 661.274,584.147 662.274,584.48 663.5,584.5C 665.03,584.36 666.03,583.693 666.5,582.5 Z"/></g>
<g><path style="opacity:1" fill="#dc9f9b" d="M 394.5,588.5 C 395.302,587.115 395.969,587.282 396.5,589C 396.43,589.765 396.097,590.265 395.5,590.5C 395.672,589.508 395.338,588.842 394.5,588.5 Z"/></g>
<g><path style="opacity:1" fill="#dda39e" d="M 481.5,588.5 C 482.302,587.115 482.969,587.282 483.5,589C 483.43,589.765 483.097,590.265 482.5,590.5C 482.672,589.508 482.338,588.842 481.5,588.5 Z"/></g>
<g><path style="opacity:1" fill="#e6bcb9" d="M 378.5,591.5 C 383.64,592.488 388.974,592.821 394.5,592.5C 388.654,593.817 382.654,593.817 376.5,592.5C 376.957,591.702 377.624,591.369 378.5,591.5 Z"/></g>
<g><path style="opacity:1" fill="#e7bebb" d="M 465.5,591.5 C 470.305,592.487 475.305,592.821 480.5,592.5C 474.987,593.816 469.32,593.816 463.5,592.5C 463.957,591.702 464.624,591.369 465.5,591.5 Z"/></g>
<g><path style="opacity:1" fill="#e7bfbc" d="M 532.5,591.5 C 537.305,592.487 542.305,592.821 547.5,592.5C 541.987,593.816 536.32,593.816 530.5,592.5C 530.957,591.702 531.624,591.369 532.5,591.5 Z"/></g>
<g><path style="opacity:1" fill="#e7bfbc" d="M 743.5,591.5 C 748.305,592.487 753.305,592.821 758.5,592.5C 752.987,593.816 747.32,593.816 741.5,592.5C 741.957,591.702 742.624,591.369 743.5,591.5 Z"/></g>
</svg>
