<?xml version="1.0" encoding="UTF-8"?>
<!DOCTYPE svg PUBLIC "-//W3C//DTD SVG 1.1//EN" "http://www.w3.org/Graphics/SVG/1.1/DTD/svg11.dtd">
<svg xmlns="http://www.w3.org/2000/svg" version="1.1" width="1095px" height="830px" style="shape-rendering:geometricPrecision; text-rendering:geometricPrecision; image-rendering:optimizeQuality; fill-rule:evenodd; clip-rule:evenodd" xmlns:xlink="http://www.w3.org/1999/xlink">
<g><path style="opacity:1" fill="#fefefe" d="M -0.5,-0.5 C 364.5,-0.5 729.5,-0.5 1094.5,-0.5C 1094.5,276.167 1094.5,552.833 1094.5,829.5C 729.5,829.5 364.5,829.5 -0.5,829.5C -0.5,552.833 -0.5,276.167 -0.5,-0.5 Z"/></g>
<g><path style="opacity:1" fill="#868686" d="M 327.5,292.5 C 325.5,292.5 323.5,292.5 321.5,292.5C 321.815,296.371 321.482,300.038 320.5,303.5C 320.5,299.5 320.5,295.5 320.5,291.5C 323.059,291.198 325.393,291.532 327.5,292.5 Z"/></g>
<g><path style="opacity:1" fill="#9d9d9d" d="M 415.5,292.5 C 410.305,292.179 405.305,292.513 400.5,293.5C 399.957,293.44 399.624,293.107 399.5,292.5C 404.986,291.185 410.32,291.185 415.5,292.5 Z"/></g>
<g><path style="opacity:1" fill="#959595" d="M 468.5,292.5 C 465.612,291.99 463.279,292.656 461.5,294.5C 460.596,293.791 460.263,292.791 460.5,291.5C 463.385,291.194 466.052,291.527 468.5,292.5 Z"/></g>
<g><path style="opacity:1" fill="#4d4d4d" d="M 676.5,291.5 C 678.473,290.837 680.639,290.504 683,290.5C 687.095,290.431 690.928,291.097 694.5,292.5C 693.448,292.351 692.448,292.517 691.5,293C 692.737,293.232 693.737,293.732 694.5,294.5C 688.536,293.693 682.536,293.36 676.5,293.5C 679.305,292.681 682.305,292.181 685.5,292C 682.518,291.502 679.518,291.335 676.5,291.5 Z"/></g>
<g><path style="opacity:1" fill="#5a5a5a" d="M 792.5,291.5 C 788.486,291.334 784.486,291.501 780.5,292C 784.688,292.176 788.688,292.676 792.5,293.5C 788.167,293.5 783.833,293.5 779.5,293.5C 778.081,292.549 776.415,292.216 774.5,292.5C 778.072,291.097 781.905,290.431 786,290.5C 788.361,290.504 790.527,290.837 792.5,291.5 Z"/></g>
<g><path style="opacity:1" fill="#1a1a1a" d="M 257.5,293.5 C 259.948,292.527 262.615,292.194 265.5,292.5C 265.5,324.833 265.5,357.167 265.5,389.5C 273.889,389.803 282.222,389.47 290.5,388.5C 291.604,389.631 291.271,390.465 289.5,391C 279.172,391.5 268.839,391.666 258.5,391.5C 258.832,358.662 258.498,325.996 257.5,293.5 Z"/></g>
<g><path style="opacity:1" fill="#171717" d="M 327.5,292.5 C 329.017,292.511 330.184,293.177 331,294.5C 336.853,326.577 343.02,358.577 349.5,390.5C 347.052,391.473 344.385,391.806 341.5,391.5C 341.802,388.941 341.468,386.607 340.5,384.5C 340.884,380.511 340.217,376.845 338.5,373.5C 329.167,372.833 319.833,372.167 310.5,371.5C 319.833,371.5 329.167,371.5 338.5,371.5C 338.737,370.209 338.404,369.209 337.5,368.5C 333.853,343.942 329.353,319.609 324,295.5C 322.843,299.782 322.01,304.116 321.5,308.5C 320.596,307.791 320.263,306.791 320.5,305.5C 320.5,304.833 320.5,304.167 320.5,303.5C 321.482,300.038 321.815,296.371 321.5,292.5C 323.5,292.5 325.5,292.5 327.5,292.5 Z"/></g>
<g><path style="opacity:1" fill="#151515" d="M 408.5,339.5 C 409.833,340.167 411.167,340.833 412.5,341.5C 411.167,341.5 409.833,341.5 408.5,341.5C 408.5,357.5 408.5,373.5 408.5,389.5C 410.5,390.167 412.5,390.833 414.5,391.5C 409.637,391.819 404.97,391.486 400.5,390.5C 401.485,358.544 401.819,326.544 401.5,294.5C 403.265,293.539 405.265,293.205 407.5,293.5C 407.17,309.009 407.504,324.342 408.5,339.5 Z"/></g>
<g><path style="opacity:1" fill="#131313" d="M 468.5,292.5 C 468.5,324.833 468.5,357.167 468.5,389.5C 476.889,389.803 485.222,389.47 493.5,388.5C 494.639,390.396 493.973,391.396 491.5,391.5C 481.833,391.5 472.167,391.5 462.5,391.5C 462.832,359.329 462.498,327.329 461.5,295.5C 461.5,295.167 461.5,294.833 461.5,294.5C 463.279,292.656 465.612,291.99 468.5,292.5 Z"/></g>
<g><path style="opacity:1" fill="#181818" d="M 552.5,390.5 C 550.052,391.473 547.385,391.806 544.5,391.5C 544.487,385.41 543.82,379.41 542.5,373.5C 532.833,372.833 523.167,372.167 513.5,371.5C 522.833,371.5 532.167,371.5 541.5,371.5C 541.784,369.585 541.451,367.919 540.5,366.5C 537.209,342.632 532.876,318.965 527.5,295.5C 526.205,298.012 525.539,300.679 525.5,303.5C 524.662,303.158 524.328,302.492 524.5,301.5C 524.5,298.5 524.5,295.5 524.5,292.5C 528.603,291.769 532.103,292.769 535,295.5C 541.026,327.131 546.86,358.798 552.5,390.5 Z"/></g>
<g><path style="opacity:1" fill="#1b1b1b" d="M 572.5,293.5 C 577.519,291.28 581.352,292.613 584,297.5C 591.861,326.249 600.027,354.916 608.5,383.5C 608.372,385.655 608.872,387.655 610,389.5C 610.5,357.168 610.667,324.835 610.5,292.5C 611.833,308.486 612.499,324.819 612.5,341.5C 612.333,357.833 612.167,374.167 612,390.5C 609.333,393.167 606.667,393.167 604,390.5C 594.112,359.339 584.945,328.006 576.5,296.5C 575.652,295.375 574.652,295.375 573.5,296.5C 573.737,295.209 573.404,294.209 572.5,293.5 Z"/></g>
<g><path style="opacity:1" fill="#cecece" d="M 610.5,292.5 C 610.667,324.835 610.5,357.168 610,389.5C 608.872,387.655 608.372,385.655 608.5,383.5C 609.167,353.167 609.833,322.833 610.5,292.5 Z"/></g>
<g><path style="opacity:1" fill="#fdfdfd" d="M 779.5,293.5 C 783.833,293.5 788.167,293.5 792.5,293.5C 814.336,297.842 826.836,311.175 830,333.5C 831.611,349.724 827.611,364.391 818,377.5C 805.652,389.047 791.152,393.047 774.5,389.5C 773.486,388.326 772.153,387.66 770.5,387.5C 758.388,382.215 750.221,373.215 746,360.5C 738.707,336.675 744.207,316.509 762.5,300C 767.792,296.764 773.458,294.598 779.5,293.5 Z"/></g>
<g><path style="opacity:1" fill="#747474" d="M 461.5,295.5 C 462.498,327.329 462.832,359.329 462.5,391.5C 472.167,391.5 481.833,391.5 491.5,391.5C 481.681,392.494 471.681,392.827 461.5,392.5C 461.5,360.167 461.5,327.833 461.5,295.5 Z"/></g>
<g><path style="opacity:1" fill="#d6d6d6" d="M 572.5,293.5 C 573.404,294.209 573.737,295.209 573.5,296.5C 572.841,328.518 573.507,360.184 575.5,391.5C 574.791,392.404 573.791,392.737 572.5,392.5C 572.5,359.5 572.5,326.5 572.5,293.5 Z"/></g>
<g><path style="opacity:1" fill="#353535" d="M 576.5,296.5 C 575.502,327.996 575.168,359.662 575.5,391.5C 573.507,360.184 572.841,328.518 573.5,296.5C 574.652,295.375 575.652,295.375 576.5,296.5 Z"/></g>
<g><path style="opacity:1" fill="#202020" d="M 694.5,292.5 C 704.518,294.176 713.185,298.509 720.5,305.5C 719.573,307.946 717.906,308.779 715.5,308C 709.903,301.221 702.903,296.721 694.5,294.5C 693.737,293.732 692.737,293.232 691.5,293C 692.448,292.517 693.448,292.351 694.5,292.5 Z"/></g>
<g><path style="opacity:1" fill="#f7f7f7" d="M 337.5,368.5 C 329.231,370.47 320.565,371.136 311.5,370.5C 311.5,369.167 311.5,367.833 311.5,366.5C 314.704,347.145 318.038,327.812 321.5,308.5C 322.01,304.116 322.843,299.782 324,295.5C 329.353,319.609 333.853,343.942 337.5,368.5 Z"/></g>
<g><path style="opacity:1" fill="#f5f5f5" d="M 540.5,366.5 C 540.5,367.833 540.5,369.167 540.5,370.5C 531.435,371.136 522.769,370.47 514.5,368.5C 518.249,346.839 521.916,325.172 525.5,303.5C 525.539,300.679 526.205,298.012 527.5,295.5C 532.876,318.965 537.209,342.632 540.5,366.5 Z"/></g>
<g><path style="opacity:1" fill="#1d1d1d" d="M 676.5,291.5 C 679.518,291.335 682.518,291.502 685.5,292C 682.305,292.181 679.305,292.681 676.5,293.5C 656.047,297.986 643.88,310.652 640,331.5C 636.04,355.18 643.873,373.68 663.5,387C 683.908,394.146 702.241,390.646 718.5,376.5C 719.282,378.329 718.616,379.829 716.5,381C 698.348,393.979 679.015,395.979 658.5,387C 639.079,374.653 630.412,356.82 632.5,333.5C 633.924,331.485 634.59,329.152 634.5,326.5C 641.417,306.37 655.417,294.703 676.5,291.5 Z"/></g>
<g><path style="opacity:1" fill="#1b1b1b" d="M 774.5,292.5 C 776.415,292.216 778.081,292.549 779.5,293.5C 773.458,294.598 767.792,296.764 762.5,300C 744.207,316.509 738.707,336.675 746,360.5C 750.221,373.215 758.388,382.215 770.5,387.5C 772.031,388.925 771.698,389.591 769.5,389.5C 753.021,383.849 742.521,372.516 738,355.5C 732.262,331.145 739.762,311.978 760.5,298C 764.914,295.474 769.58,293.641 774.5,292.5 Z"/></g>
<g><path style="opacity:1" fill="#1b1b1b" d="M 792.5,291.5 C 815.379,295.351 830.212,308.351 837,330.5C 840.767,361.477 827.934,381.977 798.5,392C 791.842,392.5 785.175,392.666 778.5,392.5C 776.723,391.4 774.723,390.566 772.5,390C 773.094,389.536 773.761,389.369 774.5,389.5C 791.152,393.047 805.652,389.047 818,377.5C 827.611,364.391 831.611,349.724 830,333.5C 826.836,311.175 814.336,297.842 792.5,293.5C 788.688,292.676 784.688,292.176 780.5,292C 784.486,291.501 788.486,291.334 792.5,291.5 Z"/></g>
<g><path style="opacity:1" fill="#626262" d="M 634.5,326.5 C 634.59,329.152 633.924,331.485 632.5,333.5C 632.41,330.848 633.076,328.515 634.5,326.5 Z"/></g>
<g><path style="opacity:1" fill="#2a2a2a" d="M 524.5,301.5 C 524.328,302.492 524.662,303.158 525.5,303.5C 521.916,325.172 518.249,346.839 514.5,368.5C 513.596,369.209 513.263,370.209 513.5,371.5C 523.167,372.167 532.833,372.833 542.5,373.5C 532.5,373.5 522.5,373.5 512.5,373.5C 512.058,379.594 511.058,385.594 509.5,391.5C 508.359,389.579 508.192,387.579 509,385.5C 513.745,357.284 518.912,329.284 524.5,301.5 Z"/></g>
<g><path style="opacity:1" fill="#fcfcfc" d="M 412.5,341.5 C 422.106,342.274 428.273,347.274 431,356.5C 433.895,368.417 431.062,378.584 422.5,387C 418.037,388.975 413.371,389.808 408.5,389.5C 408.5,373.5 408.5,357.5 408.5,341.5C 409.833,341.5 411.167,341.5 412.5,341.5 Z"/></g>
<g><path style="opacity:1" fill="#1d1d1d" d="M 415.5,292.5 C 433.578,296.972 440.078,308.306 435,326.5C 432.406,333.428 427.573,337.928 420.5,340C 427.685,342.5 433.185,347 437,353.5C 437.822,356.117 438.322,358.784 438.5,361.5C 438.587,366.537 438.254,371.537 437.5,376.5C 432.999,386.256 425.332,391.256 414.5,391.5C 412.5,390.833 410.5,390.167 408.5,389.5C 413.371,389.808 418.037,388.975 422.5,387C 431.062,378.584 433.895,368.417 431,356.5C 428.273,347.274 422.106,342.274 412.5,341.5C 411.167,340.833 409.833,340.167 408.5,339.5C 407.504,324.342 407.17,309.009 407.5,293.5C 405.265,293.205 403.265,293.539 401.5,294.5C 400.833,294.5 400.5,294.167 400.5,293.5C 405.305,292.513 410.305,292.179 415.5,292.5 Z"/></g>
<g><path style="opacity:1" fill="#fafafa" d="M 408.5,339.5 C 408.5,324.5 408.5,309.5 408.5,294.5C 423.129,294.634 430.129,302.134 429.5,317C 429.489,331.174 422.489,338.674 408.5,339.5 Z"/></g>
<g><path style="opacity:1" fill="#343434" d="M 320.5,305.5 C 320.263,306.791 320.596,307.791 321.5,308.5C 318.038,327.812 314.704,347.145 311.5,366.5C 310.549,367.919 310.216,369.585 310.5,371.5C 319.833,372.167 329.167,372.833 338.5,373.5C 328.833,373.5 319.167,373.5 309.5,373.5C 308.605,379.48 307.771,385.48 307,391.5C 305.844,392.993 305.01,392.826 304.5,391C 309.285,362.253 314.618,333.753 320.5,305.5 Z"/></g>
<g><path style="opacity:1" fill="#acacac" d="M 311.5,366.5 C 311.5,367.833 311.5,369.167 311.5,370.5C 320.565,371.136 329.231,370.47 337.5,368.5C 338.404,369.209 338.737,370.209 338.5,371.5C 329.167,371.5 319.833,371.5 310.5,371.5C 310.216,369.585 310.549,367.919 311.5,366.5 Z"/></g>
<g><path style="opacity:1" fill="#aaaaaa" d="M 540.5,366.5 C 541.451,367.919 541.784,369.585 541.5,371.5C 532.167,371.5 522.833,371.5 513.5,371.5C 513.263,370.209 513.596,369.209 514.5,368.5C 522.769,370.47 531.435,371.136 540.5,370.5C 540.5,369.167 540.5,367.833 540.5,366.5 Z"/></g>
<g><path style="opacity:1" fill="#a5a5a5" d="M 438.5,361.5 C 439.162,363.304 439.495,365.304 439.5,367.5C 439.657,370.814 438.991,373.814 437.5,376.5C 438.254,371.537 438.587,366.537 438.5,361.5 Z"/></g>
<g><path style="opacity:1" fill="#515151" d="M 770.5,387.5 C 772.153,387.66 773.486,388.326 774.5,389.5C 773.761,389.369 773.094,389.536 772.5,390C 774.723,390.566 776.723,391.4 778.5,392.5C 775.084,392.472 772.084,391.472 769.5,389.5C 771.698,389.591 772.031,388.925 770.5,387.5 Z"/></g>
<g><path style="opacity:1" fill="#979797" d="M 340.5,384.5 C 341.468,386.607 341.802,388.941 341.5,391.5C 344.385,391.806 347.052,391.473 349.5,390.5C 350.043,390.56 350.376,390.893 350.5,391.5C 347.232,392.487 343.898,392.82 340.5,392.5C 340.5,389.833 340.5,387.167 340.5,384.5 Z"/></g>
<g><path style="opacity:1" fill="#909090" d="M 400.5,390.5 C 404.97,391.486 409.637,391.819 414.5,391.5C 409.652,392.814 404.652,392.814 399.5,391.5C 399.624,390.893 399.957,390.56 400.5,390.5 Z"/></g>
<g><path style="opacity:1" fill="#888888" d="M 552.5,390.5 C 553.043,390.56 553.376,390.893 553.5,391.5C 550.355,392.803 547.355,392.803 544.5,391.5C 547.385,391.806 550.052,391.473 552.5,390.5 Z"/></g>
<g><path style="opacity:1" fill="#808080" d="M 570.5,410.5 C 573.687,409.194 577.02,409.194 580.5,410.5C 580.376,411.107 580.043,411.44 579.5,411.5C 576.713,410.523 573.713,410.19 570.5,410.5 Z"/></g>
<g><path style="opacity:1" fill="#777777" d="M 808.5,412.5 C 816.657,411.671 824.99,411.171 833.5,411C 828,410.833 822.5,410.667 817,410.5C 811.124,410.505 805.624,411.171 800.5,412.5C 799.596,411.791 799.263,410.791 799.5,409.5C 811.167,409.5 822.833,409.5 834.5,409.5C 834.5,410.5 834.5,411.5 834.5,412.5C 825.833,412.5 817.167,412.5 808.5,412.5 Z"/></g>
<g><path style="opacity:1" fill="#151515" d="M 274.5,410.5 C 273.791,411.404 272.791,411.737 271.5,411.5C 269.5,411.5 267.5,411.5 265.5,411.5C 265.17,428.009 265.504,444.342 266.5,460.5C 268.5,460.5 270.5,460.5 272.5,460.5C 273.239,460.369 273.906,460.536 274.5,461C 273.263,461.232 272.263,461.732 271.5,462.5C 269.5,462.5 267.5,462.5 265.5,462.5C 265.5,479.5 265.5,496.5 265.5,513.5C 268.5,514.167 271.5,514.833 274.5,515.5C 268.833,515.5 263.167,515.5 257.5,515.5C 258.818,480.625 258.818,445.791 257.5,411C 263.157,410.501 268.824,410.334 274.5,410.5 Z"/></g>
<g><path style="opacity:1" fill="#111111" d="M 453.5,499.5 C 456.118,512.104 463.785,517.104 476.5,514.5C 468.74,517.456 461.073,516.956 453.5,513C 449.154,509.142 446.821,504.308 446.5,498.5C 446.5,469.167 446.5,439.833 446.5,410.5C 448.5,410.5 450.5,410.5 452.5,410.5C 452.169,440.338 452.502,470.005 453.5,499.5 Z"/></g>
<g><path style="opacity:1" fill="#7d7d7d" d="M 453.5,499.5 C 452.502,470.005 452.169,440.338 452.5,410.5C 450.5,410.5 448.5,410.5 446.5,410.5C 446.5,439.833 446.5,469.167 446.5,498.5C 445.502,469.005 445.169,439.338 445.5,409.5C 448.167,409.5 450.833,409.5 453.5,409.5C 453.5,439.5 453.5,469.5 453.5,499.5 Z"/></g>
<g><path style="opacity:1" fill="#727272" d="M 488.5,499.5 C 488.667,469.831 488.5,440.165 488,410.5C 487.832,441.003 487.332,471.336 486.5,501.5C 486.5,470.833 486.5,440.167 486.5,409.5C 487.5,409.5 488.5,409.5 489.5,409.5C 489.831,439.671 489.498,469.671 488.5,499.5 Z"/></g>
<g><path style="opacity:1" fill="#242424" d="M 508.5,409.5 C 522.5,409.5 536.5,409.5 550.5,409.5C 550.5,410.5 550.5,411.5 550.5,412.5C 544.833,412.5 539.167,412.5 533.5,412.5C 533.174,446.543 533.507,480.543 534.5,514.5C 531.572,515.484 528.572,515.817 525.5,515.5C 525.5,481.167 525.5,446.833 525.5,412.5C 519.833,412.5 514.167,412.5 508.5,412.5C 508.5,411.5 508.5,410.5 508.5,409.5 Z"/></g>
<g><path style="opacity:1" fill="#1e1e1e" d="M 570.5,410.5 C 573.713,410.19 576.713,410.523 579.5,411.5C 579.5,446.167 579.5,480.833 579.5,515.5C 576.428,515.817 573.428,515.484 570.5,514.5C 571.833,479.804 571.833,445.137 570.5,410.5 Z"/></g>
<g><path style="opacity:1" fill="#171717" d="M 730.5,410.5 C 732.833,410.5 735.167,410.5 737.5,410.5C 737.169,440.338 737.502,470.005 738.5,499.5C 740.95,512.237 748.616,517.237 761.5,514.5C 751.062,518.695 741.895,516.695 734,508.5C 732.725,506.283 731.725,503.949 731,501.5C 730.5,471.168 730.333,440.835 730.5,410.5 Z"/></g>
<g><path style="opacity:1" fill="#acacac" d="M 730.5,410.5 C 732.948,409.527 735.615,409.194 738.5,409.5C 738.5,439.5 738.5,469.5 738.5,499.5C 737.502,470.005 737.169,440.338 737.5,410.5C 735.167,410.5 732.833,410.5 730.5,410.5 Z"/></g>
<g><path style="opacity:1" fill="#2b2b2b" d="M 771.5,410.5 C 773.492,439.815 774.159,469.481 773.5,499.5C 772.886,504.894 770.553,509.394 766.5,513C 764.975,514.009 763.308,514.509 761.5,514.5C 766.375,511.452 769.542,507.119 771,501.5C 771.5,471.168 771.667,440.835 771.5,410.5 Z"/></g>
<g><path style="opacity:1" fill="#9b9b9b" d="M 771.5,410.5 C 772.209,409.596 773.209,409.263 774.5,409.5C 774.831,439.671 774.498,469.671 773.5,499.5C 774.159,469.481 773.492,439.815 771.5,410.5 Z"/></g>
<g><path style="opacity:1" fill="#1c1c1c" d="M 808.5,412.5 C 807.504,426.99 807.171,441.657 807.5,456.5C 816.5,456.5 825.5,456.5 834.5,456.5C 826.231,458.47 817.565,459.136 808.5,458.5C 808.5,476.833 808.5,495.167 808.5,513.5C 817.708,513.793 826.875,513.46 836,512.5C 837.898,513.352 837.731,514.019 835.5,514.5C 823.865,515.459 812.198,515.792 800.5,515.5C 800.5,481.167 800.5,446.833 800.5,412.5C 805.624,411.171 811.124,410.505 817,410.5C 822.5,410.667 828,410.833 833.5,411C 824.99,411.171 816.657,411.671 808.5,412.5 Z"/></g>
<g><path style="opacity:1" fill="#101010" d="M 488.5,499.5 C 488.03,507.487 484.03,512.487 476.5,514.5C 481.327,511.337 484.66,507.004 486.5,501.5C 487.332,471.336 487.832,441.003 488,410.5C 488.5,440.165 488.667,469.831 488.5,499.5 Z"/></g>
<g><path style="opacity:1" fill="#fbfbfb" d="M 271.5,412.5 C 283.34,415.624 289.006,423.458 288.5,436C 288.501,444.384 285.501,451.384 279.5,457C 277.075,458.213 274.741,459.379 272.5,460.5C 270.5,460.5 268.5,460.5 266.5,460.5C 266.5,444.5 266.5,428.5 266.5,412.5C 268.167,412.5 269.833,412.5 271.5,412.5 Z"/></g>
<g><path style="opacity:1" fill="#989898" d="M 271.5,411.5 C 271.5,411.833 271.5,412.167 271.5,412.5C 269.833,412.5 268.167,412.5 266.5,412.5C 266.5,428.5 266.5,444.5 266.5,460.5C 265.504,444.342 265.17,428.009 265.5,411.5C 267.5,411.5 269.5,411.5 271.5,411.5 Z"/></g>
<g><path style="opacity:1" fill="#1b1b1b" d="M 647.5,408.5 C 673.528,407.092 692.695,417.759 705,440.5C 715.66,476.342 703.827,501.509 669.5,516C 678.007,521.419 686.34,527.086 694.5,533C 697.432,533.953 700.432,534.453 703.5,534.5C 703.5,535.5 703.5,536.5 703.5,537.5C 690.109,536.804 679.109,531.304 670.5,521C 667.833,519.667 665.167,518.333 662.5,517C 628.631,517.788 608.465,501.621 602,468.5C 600.186,442.956 610.686,424.456 633.5,413C 638.373,411.763 643.04,410.263 647.5,408.5 Z"/></g>
<g><path style="opacity:1" fill="#fdfdfd" d="M 649.5,410.5 C 677.013,410.513 694.18,423.846 701,450.5C 704.432,472.873 697.932,491.707 681.5,507C 664.088,516.941 646.755,516.941 629.5,507C 613.152,492.178 606.652,473.678 610,451.5C 614.282,429.055 627.448,415.388 649.5,410.5 Z"/></g>
<g><path style="opacity:1" fill="#1b1b1b" d="M 382.5,515.5 C 376.536,516.307 370.536,516.64 364.5,516.5C 334.586,510.745 318.586,492.578 316.5,462C 319.209,433.954 334.209,416.287 361.5,409C 390.035,406.842 410.202,418.676 422,444.5C 429.555,476.526 418.722,499.693 389.5,514C 387.08,514.29 384.746,514.79 382.5,515.5 Z"/></g>
<g><path style="opacity:1" fill="#fdfdfd" d="M 365.5,410.5 C 395.236,411.067 412.402,426.067 417,455.5C 419.329,477.991 411.496,495.825 393.5,509C 368.133,520.981 347.633,515.481 332,492.5C 321.73,471.966 322.063,451.633 333,431.5C 340.764,419.547 351.597,412.547 365.5,410.5 Z"/></g>
<g><path style="opacity:1" fill="#a0a0a0" d="M 808.5,412.5 C 808.5,426.833 808.5,441.167 808.5,455.5C 817.349,455.174 826.016,455.507 834.5,456.5C 825.5,456.5 816.5,456.5 807.5,456.5C 807.171,441.657 807.504,426.99 808.5,412.5 Z"/></g>
<g><path style="opacity:1" fill="#f8f8f8" d="M 271.5,462.5 C 280.897,464.061 287.063,469.394 290,478.5C 291.355,487.486 290.355,496.153 287,504.5C 281.616,511.469 274.449,514.469 265.5,513.5C 265.5,496.5 265.5,479.5 265.5,462.5C 267.5,462.5 269.5,462.5 271.5,462.5 Z"/></g>
<g><path style="opacity:1" fill="#1b1b1b" d="M 274.5,410.5 C 285.524,412.352 292.691,418.685 296,429.5C 298.23,444.212 292.73,454.712 279.5,461C 295.199,467.223 301.365,478.723 298,495.5C 294.914,507.753 287.081,514.42 274.5,515.5C 271.5,514.833 268.5,514.167 265.5,513.5C 274.449,514.469 281.616,511.469 287,504.5C 290.355,496.153 291.355,487.486 290,478.5C 287.063,469.394 280.897,464.061 271.5,462.5C 272.263,461.732 273.263,461.232 274.5,461C 273.906,460.536 273.239,460.369 272.5,460.5C 274.741,459.379 277.075,458.213 279.5,457C 285.501,451.384 288.501,444.384 288.5,436C 289.006,423.458 283.34,415.624 271.5,412.5C 271.5,412.167 271.5,411.833 271.5,411.5C 272.791,411.737 273.791,411.404 274.5,410.5 Z"/></g>
<g><path style="opacity:1" fill="#b9b9b9" d="M 382.5,515.5 C 382.082,516.222 381.416,516.722 380.5,517C 374.984,517.817 369.65,517.651 364.5,516.5C 370.536,516.64 376.536,516.307 382.5,515.5 Z"/></g>
</svg>
