<?xml version="1.0" encoding="UTF-8"?>
<!DOCTYPE svg PUBLIC "-//W3C//DTD SVG 1.1//EN" "http://www.w3.org/Graphics/SVG/1.1/DTD/svg11.dtd">
<svg xmlns="http://www.w3.org/2000/svg" version="1.1" width="1095px" height="830px" style="shape-rendering:geometricPrecision; text-rendering:geometricPrecision; image-rendering:optimizeQuality; fill-rule:evenodd; clip-rule:evenodd" xmlns:xlink="http://www.w3.org/1999/xlink">
<g><path style="opacity:1" fill="#0d0d0d" d="M -0.5,-0.5 C 364.5,-0.5 729.5,-0.5 1094.5,-0.5C 1094.5,276.167 1094.5,552.833 1094.5,829.5C 729.5,829.5 364.5,829.5 -0.5,829.5C -0.5,552.833 -0.5,276.167 -0.5,-0.5 Z"/></g>
<g><path style="opacity:1" fill="#0f0e0d" d="M 651.5,323.5 C 644.499,320.157 638.333,321.491 633,327.5C 626.667,339.5 620.333,351.5 614,363.5C 609.932,369.07 605.098,373.737 599.5,377.5C 595.82,378.56 592.154,379.726 588.5,381C 584.459,381.827 580.459,381.66 576.5,380.5C 579.471,375.697 582.638,371.03 586,366.5C 587.864,363.408 589.031,360.074 589.5,356.5C 588.785,349.853 588.285,343.187 588,336.5C 586,333.833 584,333.833 582,336.5C 581.502,339.482 581.335,342.482 581.5,345.5C 581.54,350.193 581.873,354.859 582.5,359.5C 576.911,367.006 572.077,375.006 568,383.5C 566.628,397.013 569.795,409.346 577.5,420.5C 575.741,421.754 574.241,421.421 573,419.5C 568.667,412.167 564.333,404.833 560,397.5C 558.773,382.873 558.106,368.206 558,353.5C 556,352.167 554,352.167 552,353.5C 551.828,358.202 551.328,362.868 550.5,367.5C 549.817,367.137 549.15,366.804 548.5,366.5C 535.745,358.418 521.745,354.251 506.5,354C 509.312,348.875 511.979,343.709 514.5,338.5C 513.875,335.014 512.042,334.014 509,335.5C 504.842,344.485 500.175,353.152 495,361.5C 491.897,365.114 488.397,368.114 484.5,370.5C 476.765,373.527 468.765,375.694 460.5,377C 452.274,380.893 446.441,387.059 443,395.5C 440.448,401.988 438.614,408.654 437.5,415.5C 436.539,417.265 436.205,419.265 436.5,421.5C 435.5,421.5 434.5,421.5 433.5,421.5C 433.5,420.167 433.5,418.833 433.5,417.5C 434.323,404.541 437.49,392.208 443,380.5C 456.707,370.433 463.374,356.766 463,339.5C 466.961,328.723 473.461,319.889 482.5,313C 489.378,309.32 496.711,307.82 504.5,308.5C 526.445,312.7 543.778,305.533 556.5,287C 558.193,286.153 559.86,285.32 561.5,284.5C 571.262,281.775 580.929,278.609 590.5,275C 598.467,270.519 606.467,266.352 614.5,262.5C 619.214,262.173 623.88,262.507 628.5,263.5C 624.868,270.067 623.701,277.067 625,284.5C 628.697,292.193 634.864,295.36 643.5,294C 644.86,292.062 644.527,290.396 642.5,289C 638.549,288.464 635.049,286.964 632,284.5C 629.722,268.431 636.555,258.598 652.5,255C 655.807,252.53 658.14,249.363 659.5,245.5C 660.724,247.898 660.558,250.231 659,252.5C 653.434,257.277 648.101,262.277 643,267.5C 642.333,269.167 642.333,270.833 643,272.5C 644.733,276.661 647.4,279.994 651,282.5C 652.732,282.266 653.566,281.266 653.5,279.5C 652.444,276.387 651.111,273.387 649.5,270.5C 649.833,270.167 650.167,269.833 650.5,269.5C 658.254,273.421 663.754,279.421 667,287.5C 671.106,299.659 676.273,311.325 682.5,322.5C 679.789,326.212 676.456,329.212 672.5,331.5C 665.589,328.542 658.589,325.876 651.5,323.5 Z"/></g>
<g><path style="opacity:1" fill="#efcf35" d="M 634.5,256.5 C 627.988,257.167 621.321,257.833 614.5,258.5C 613.975,259.192 613.308,259.692 612.5,260C 613.756,260.417 614.423,261.25 614.5,262.5C 606.467,266.352 598.467,270.519 590.5,275C 580.929,278.609 571.262,281.775 561.5,284.5C 561.658,282.179 562.658,280.346 564.5,279C 564.167,278.667 563.833,278.333 563.5,278C 565.491,277.626 567.158,276.793 568.5,275.5C 573.714,273.695 579.048,272.195 584.5,271C 593.383,265.455 602.716,260.789 612.5,257C 619.826,256.5 627.159,256.334 634.5,256.5 Z"/></g>
<g><path style="opacity:1" fill="#efdf31" d="M 647.5,328.5 C 647.577,327.25 648.244,326.417 649.5,326C 648.391,324.187 649.058,323.354 651.5,323.5C 658.589,325.876 665.589,328.542 672.5,331.5C 676.456,329.212 679.789,326.212 682.5,322.5C 676.273,311.325 671.106,299.659 667,287.5C 663.754,279.421 658.254,273.421 650.5,269.5C 650.167,269.833 649.833,270.167 649.5,270.5C 651.111,273.387 652.444,276.387 653.5,279.5C 653.566,281.266 652.732,282.266 651,282.5C 647.4,279.994 644.733,276.661 643,272.5C 642.333,270.833 642.333,269.167 643,267.5C 648.101,262.277 653.434,257.277 659,252.5C 660.558,250.231 660.724,247.898 659.5,245.5C 658.14,249.363 655.807,252.53 652.5,255C 636.555,258.598 629.722,268.431 632,284.5C 635.049,286.964 638.549,288.464 642.5,289C 644.527,290.396 644.86,292.062 643.5,294C 634.864,295.36 628.697,292.193 625,284.5C 623.701,277.067 624.868,270.067 628.5,263.5C 623.88,262.507 619.214,262.173 614.5,262.5C 614.423,261.25 613.756,260.417 612.5,260C 613.308,259.692 613.975,259.192 614.5,258.5C 621.321,257.833 627.988,257.167 634.5,256.5C 640.419,253.291 646.253,249.958 652,246.5C 652.906,244.256 653.406,241.923 653.5,239.5C 652.836,235.524 652.503,231.524 652.5,227.5C 654.467,227.261 656.301,227.594 658,228.5C 661.186,232.873 663.853,237.54 666,242.5C 667.041,247.44 666.374,252.106 664,256.5C 661.318,259.35 658.484,262.016 655.5,264.5C 656.436,265.974 657.77,266.974 659.5,267.5C 667.76,259.812 672.093,250.312 672.5,239C 674.259,238.202 675.926,238.369 677.5,239.5C 682.678,247.949 683.844,256.949 681,266.5C 678.203,271.934 675.037,277.1 671.5,282C 676.449,296.033 682.449,309.533 689.5,322.5C 685.776,329.89 680.109,335.224 672.5,338.5C 664.147,335.129 655.813,331.795 647.5,328.5 Z"/></g>
<g><path style="opacity:1" fill="#1a1710" d="M 675.5,255.5 C 676.22,263.308 673.554,269.975 667.5,275.5C 666.155,274.653 665.155,273.487 664.5,272C 669.554,267.384 673.22,261.884 675.5,255.5 Z"/></g>
<g><path style="opacity:1" fill="#edad3b" d="M 465.5,288.5 C 461.154,288.334 456.821,288.501 452.5,289C 454.577,289.192 456.577,289.692 458.5,290.5C 457.624,291.251 456.624,291.751 455.5,292C 458.036,292.186 460.369,292.686 462.5,293.5C 456.068,292.347 450.568,294.014 446,298.5C 443.428,309.916 440.428,321.249 437,332.5C 428.206,340.16 419.04,340.493 409.5,333.5C 405.309,328.446 402.142,322.779 400,316.5C 398.92,313.763 399.754,312.096 402.5,311.5C 405.947,312.723 409.28,314.223 412.5,316C 422.911,314.11 429.078,318.276 431,328.5C 432.941,324.751 434.274,320.751 435,316.5C 435.493,308.678 437.493,301.345 441,294.5C 448.036,287.672 456.203,285.672 465.5,288.5 Z"/></g>
<g><path style="opacity:1" fill="#ebc036" d="M 568.5,275.5 C 567.158,276.793 565.491,277.626 563.5,278C 563.833,278.333 564.167,278.667 564.5,279C 562.658,280.346 561.658,282.179 561.5,284.5C 559.86,285.32 558.193,286.153 556.5,287C 543.778,305.533 526.445,312.7 504.5,308.5C 502.369,307.686 500.036,307.186 497.5,307C 503.859,306.831 510.193,306.331 516.5,305.5C 513.215,304.676 509.882,304.176 506.5,304C 510.688,303.824 514.688,303.324 518.5,302.5C 524.92,302.598 530.92,301.098 536.5,298C 542.5,293.333 547.833,288 552.5,282C 557.511,278.993 562.844,276.827 568.5,275.5 Z"/></g>
<g><path style="opacity:1" fill="#12100e" d="M 410.5,322.5 C 414.415,323.267 418.415,323.767 422.5,324C 423.435,326.381 423.768,328.881 423.5,331.5C 416.663,331.982 412.33,328.982 410.5,322.5 Z"/></g>
<g><path style="opacity:1" fill="#eccb34" d="M 599.5,377.5 C 601.456,379.897 603.29,379.897 605,377.5C 606.011,378.337 607.178,378.67 608.5,378.5C 607.609,379.261 606.942,380.261 606.5,381.5C 608.53,391.288 611.03,400.955 614,410.5C 614.926,412.692 616.093,414.692 617.5,416.5C 616.5,416.5 615.5,416.5 614.5,416.5C 614.634,418.292 614.301,419.958 613.5,421.5C 610.003,417.852 607.503,413.519 606,408.5C 604.571,400.717 602.738,393.05 600.5,385.5C 597.758,384.782 595.091,385.282 592.5,387C 586.13,387.706 579.797,387.539 573.5,386.5C 573.205,392.011 574.038,397.344 576,402.5C 579.187,410.375 583.02,417.875 587.5,425C 587.241,426.261 586.574,427.261 585.5,428C 580.833,428.667 576.167,428.667 571.5,428C 565.626,419.755 560.126,411.255 555,402.5C 552.524,393.334 551.024,384 550.5,374.5C 548.604,373.725 546.937,372.725 545.5,371.5C 545.539,370.417 545.873,369.417 546.5,368.5C 545.975,367.808 545.308,367.308 544.5,367C 545.793,366.51 547.127,366.343 548.5,366.5C 549.15,366.804 549.817,367.137 550.5,367.5C 551.328,362.868 551.828,358.202 552,353.5C 554,352.167 556,352.167 558,353.5C 558.106,368.206 558.773,382.873 560,397.5C 564.333,404.833 568.667,412.167 573,419.5C 574.241,421.421 575.741,421.754 577.5,420.5C 569.795,409.346 566.628,397.013 568,383.5C 572.077,375.006 576.911,367.006 582.5,359.5C 583.497,354.787 583.163,350.12 581.5,345.5C 581.335,342.482 581.502,339.482 582,336.5C 584,333.833 586,333.833 588,336.5C 588.285,343.187 588.785,349.853 589.5,356.5C 589.031,360.074 587.864,363.408 586,366.5C 582.638,371.03 579.471,375.697 576.5,380.5C 580.459,381.66 584.459,381.827 588.5,381C 592.154,379.726 595.82,378.56 599.5,377.5 Z"/></g>
<g><path style="opacity:1" fill="#efb23a" d="M 465.5,288.5 C 473.574,290.07 479.074,294.737 482,302.5C 484.243,304.787 486.743,304.953 489.5,303C 499.161,302.5 508.828,302.334 518.5,302.5C 514.688,303.324 510.688,303.824 506.5,304C 509.882,304.176 513.215,304.676 516.5,305.5C 510.193,306.331 503.859,306.831 497.5,307C 500.036,307.186 502.369,307.686 504.5,308.5C 496.711,307.82 489.378,309.32 482.5,313C 473.461,319.889 466.961,328.723 463,339.5C 463.374,356.766 456.707,370.433 443,380.5C 437.49,392.208 434.323,404.541 433.5,417.5C 433.5,418.833 433.5,420.167 433.5,421.5C 434.5,421.5 435.5,421.5 436.5,421.5C 436.205,419.265 436.539,417.265 437.5,415.5C 438.614,408.654 440.448,401.988 443,395.5C 446.441,387.059 452.274,380.893 460.5,377C 468.765,375.694 476.765,373.527 484.5,370.5C 485.043,370.56 485.376,370.893 485.5,371.5C 484.902,372.795 484.402,374.128 484,375.5C 483.667,374.5 483.333,373.5 483,372.5C 482.436,374.887 481.27,376.887 479.5,378.5C 473.505,381.086 467.172,382.92 460.5,384C 454.86,388.316 450.694,393.816 448,400.5C 444.875,409.457 443.042,418.624 442.5,428C 437.249,428.804 432.082,428.637 427,427.5C 427.094,413.572 429.094,399.905 433,386.5C 434.746,382.673 436.746,379.007 439,375.5C 444.379,371.788 448.713,367.121 452,361.5C 454.567,352.635 456.567,343.635 458,334.5C 462.648,324.202 469.148,315.369 477.5,308C 474.548,300.878 469.548,296.045 462.5,293.5C 460.369,292.686 458.036,292.186 455.5,292C 456.624,291.751 457.624,291.251 458.5,290.5C 456.577,289.692 454.577,289.192 452.5,289C 456.821,288.501 461.154,288.334 465.5,288.5 Z"/></g>
<g><path style="opacity:1" fill="#3f3617" d="M 581.5,345.5 C 583.163,350.12 583.497,354.787 582.5,359.5C 581.873,354.859 581.54,350.193 581.5,345.5 Z"/></g>
<g><path style="opacity:1" fill="#eec037" d="M 548.5,366.5 C 547.127,366.343 545.793,366.51 544.5,367C 545.308,367.308 545.975,367.808 546.5,368.5C 545.873,369.417 545.539,370.417 545.5,371.5C 544.193,370.847 542.86,370.18 541.5,369.5C 540.977,373.71 539.81,377.71 538,381.5C 533.667,387.167 529.333,392.833 525,398.5C 524.333,400.5 524.333,402.5 525,404.5C 528.503,411.505 532.003,418.505 535.5,425.5C 535.182,426.647 534.516,427.481 533.5,428C 527.584,428.807 521.75,428.641 516,427.5C 511.163,420.496 506.829,413.163 503,405.5C 503.011,398.135 503.345,390.802 504,383.5C 501.404,379.069 498.238,375.069 494.5,371.5C 490.13,375.185 485.13,377.518 479.5,378.5C 481.27,376.887 482.436,374.887 483,372.5C 483.333,373.5 483.667,374.5 484,375.5C 484.402,374.128 484.902,372.795 485.5,371.5C 485.376,370.893 485.043,370.56 484.5,370.5C 488.397,368.114 491.897,365.114 495,361.5C 500.175,353.152 504.842,344.485 509,335.5C 512.042,334.014 513.875,335.014 514.5,338.5C 511.979,343.709 509.312,348.875 506.5,354C 521.745,354.251 535.745,358.418 548.5,366.5 Z"/></g>
<g><path style="opacity:1" fill="#12100e" d="M 525.5,420.5 C 523.735,421.461 521.735,421.795 519.5,421.5C 515.828,415.647 512.328,409.647 509,403.5C 510.23,395.927 510.563,388.26 510,380.5C 506.692,375.692 503.192,371.025 499.5,366.5C 500.128,364.742 501.128,363.242 502.5,362C 512.703,360.551 522.536,361.717 532,365.5C 533.434,369.406 533.767,373.406 533,377.5C 529.715,382.454 526.048,387.12 522,391.5C 519.971,394.552 518.804,397.886 518.5,401.5C 519.988,408.142 522.321,414.476 525.5,420.5 Z"/></g>
<g><path style="opacity:1" fill="#eed433" d="M 651.5,323.5 C 649.058,323.354 648.391,324.187 649.5,326C 648.244,326.417 647.577,327.25 647.5,328.5C 641.714,328.424 637.547,331.09 635,336.5C 630.527,346.779 625.527,356.779 620,366.5C 620.68,380.257 622.347,393.924 625,407.5C 629.633,413.135 634.633,418.468 640,423.5C 640.667,424.833 640.667,426.167 640,427.5C 632.914,428.646 625.747,428.812 618.5,428C 616.946,425.713 615.279,423.546 613.5,421.5C 614.301,419.958 614.634,418.292 614.5,416.5C 615.5,416.5 616.5,416.5 617.5,416.5C 618.833,418.167 620.167,419.833 621.5,421.5C 623.693,422.797 626.027,422.797 628.5,421.5C 628.376,420.893 628.043,420.56 627.5,420.5C 622.884,416.244 619.551,411.244 617.5,405.5C 617.638,400.586 616.972,395.919 615.5,391.5C 615.271,386.022 614.271,380.689 612.5,375.5C 611.148,376.524 609.815,377.524 608.5,378.5C 607.178,378.67 606.011,378.337 605,377.5C 603.29,379.897 601.456,379.897 599.5,377.5C 605.098,373.737 609.932,369.07 614,363.5C 620.333,351.5 626.667,339.5 633,327.5C 638.333,321.491 644.499,320.157 651.5,323.5 Z"/></g>
<g><path style="opacity:1" fill="#14120e" d="M 615.5,391.5 C 615.362,396.414 616.028,401.081 617.5,405.5C 619.551,411.244 622.884,416.244 627.5,420.5C 625.735,421.461 623.735,421.795 621.5,421.5C 620.167,419.833 618.833,418.167 617.5,416.5C 616.093,414.692 614.926,412.692 614,410.5C 611.03,400.955 608.53,391.288 606.5,381.5C 606.942,380.261 607.609,379.261 608.5,378.5C 609.815,377.524 611.148,376.524 612.5,375.5C 614.271,380.689 615.271,386.022 615.5,391.5 Z"/></g>
<g><path style="opacity:1" fill="#463e18" d="M 615.5,391.5 C 616.972,395.919 617.638,400.586 617.5,405.5C 616.028,401.081 615.362,396.414 615.5,391.5 Z"/></g>
<g><path style="opacity:1" fill="#664e1f" d="M 437.5,415.5 C 437.5,417.833 437.5,420.167 437.5,422.5C 435.833,422.5 434.167,422.5 432.5,422.5C 432.216,420.585 432.549,418.919 433.5,417.5C 432.549,418.919 432.216,420.585 432.5,422.5C 434.167,422.5 435.833,422.5 437.5,422.5C 437.5,420.167 437.5,417.833 437.5,415.5 Z"/></g>
<g><path style="opacity:1" fill="#6b581e" d="M 525.5,420.5 C 526.043,420.56 526.376,420.893 526.5,421.5C 524.027,422.797 521.693,422.797 519.5,421.5C 521.735,421.795 523.735,421.461 525.5,420.5 Z"/></g>
<g><path style="opacity:1" fill="#645a1b" d="M 627.5,420.5 C 628.043,420.56 628.376,420.893 628.5,421.5C 626.027,422.797 623.693,422.797 621.5,421.5C 623.735,421.795 625.735,421.461 627.5,420.5 Z"/></g>
<g><path style="opacity:1" fill="#f7b13e" d="M 320.5,485.5 C 320.799,487.604 320.466,489.604 319.5,491.5C 317.833,491.833 316.833,492.833 316.5,494.5C 316.744,506.32 316.911,518.653 317,531.5C 318,531.167 319,530.833 320,530.5C 323.333,531.167 326.667,531.833 330,532.5C 330.232,531.263 330.732,530.263 331.5,529.5C 331.5,530.833 331.5,532.167 331.5,533.5C 323.5,533.5 315.5,533.5 307.5,533.5C 306.551,522.024 304.718,510.69 302,499.5C 298.893,510.604 297.059,521.937 296.5,533.5C 288.5,533.5 280.5,533.5 272.5,533.5C 267.462,499.96 262.462,466.627 257.5,433.5C 263.96,432.903 270.126,433.57 276,435.5C 278.667,453.502 281.334,471.502 284,489.5C 287.03,470.854 289.863,452.187 292.5,433.5C 298.5,433.5 304.5,433.5 310.5,433.5C 313.492,451.137 316.326,468.804 319,486.5C 319.383,485.944 319.883,485.611 320.5,485.5 Z"/></g>
<g><path style="opacity:1" fill="#f6b63c" d="M 392.5,434.5 C 381.495,434.333 370.495,434.5 359.5,435C 364.864,435.171 370.198,435.671 375.5,436.5C 373.009,437.541 373.009,438.374 375.5,439C 373.009,439.626 373.009,440.459 375.5,441.5C 373.009,442.541 373.009,443.374 375.5,444C 373.009,444.626 373.009,445.459 375.5,446.5C 373.009,447.541 373.009,448.374 375.5,449C 372.5,449.333 369.5,449.667 366.5,450C 372.681,450.172 378.681,450.672 384.5,451.5C 378.491,451.334 372.491,451.501 366.5,452C 366,452.5 365.5,453 365,453.5C 364.333,473.5 364.333,493.5 365,513.5C 365.5,514 366,514.5 366.5,515C 372.491,515.499 378.491,515.666 384.5,515.5C 378.347,516.328 372.013,516.828 365.5,517C 369.108,517.026 372.442,517.859 375.5,519.5C 373.009,520.541 373.009,521.374 375.5,522C 373.009,522.626 373.009,523.459 375.5,524.5C 373.009,525.541 373.009,526.374 375.5,527C 373.009,527.626 373.009,528.459 375.5,529.5C 374.975,530.192 374.308,530.692 373.5,531C 368.316,531.174 363.316,531.674 358.5,532.5C 354.167,528.833 350.167,524.833 346.5,520.5C 346.833,496.824 346.5,473.157 345.5,449.5C 344.893,449.624 344.56,449.957 344.5,450.5C 339.524,476.656 335.19,502.99 331.5,529.5C 330.732,530.263 330.232,531.263 330,532.5C 326.667,531.833 323.333,531.167 320,530.5C 319,530.833 318,531.167 317,531.5C 316.911,518.653 316.744,506.32 316.5,494.5C 316.833,492.833 317.833,491.833 319.5,491.5C 320.466,489.604 320.799,487.604 320.5,485.5C 322.832,468.171 325.166,450.838 327.5,433.5C 333.833,433.5 340.167,433.5 346.5,433.5C 346.334,437.514 346.501,441.514 347,445.5C 350.833,441.667 354.667,437.833 358.5,434C 370.008,433.174 381.341,433.341 392.5,434.5 Z"/></g>
<g><path style="opacity:1" fill="#f2b83a" d="M 392.5,434.5 C 396.833,438.5 401.167,442.5 405.5,446.5C 405.667,471.169 405.5,495.836 405,520.5C 400.833,524.667 396.667,528.833 392.5,533C 380.992,533.826 369.659,533.659 358.5,532.5C 363.316,531.674 368.316,531.174 373.5,531C 374.308,530.692 374.975,530.192 375.5,529.5C 373.009,528.459 373.009,527.626 375.5,527C 373.009,526.374 373.009,525.541 375.5,524.5C 373.009,523.459 373.009,522.626 375.5,522C 373.009,521.374 373.009,520.541 375.5,519.5C 372.442,517.859 369.108,517.026 365.5,517C 372.013,516.828 378.347,516.328 384.5,515.5C 384.783,514.711 385.283,514.044 386,513.5C 386.667,493.5 386.667,473.5 386,453.5C 385.283,452.956 384.783,452.289 384.5,451.5C 378.681,450.672 372.681,450.172 366.5,450C 369.5,449.667 372.5,449.333 375.5,449C 373.009,448.374 373.009,447.541 375.5,446.5C 373.009,445.459 373.009,444.626 375.5,444C 373.009,443.374 373.009,442.541 375.5,441.5C 373.009,440.459 373.009,439.626 375.5,439C 373.009,438.374 373.009,437.541 375.5,436.5C 370.198,435.671 364.864,435.171 359.5,435C 370.495,434.5 381.495,434.333 392.5,434.5 Z"/></g>
<g><path style="opacity:1" fill="#f7c13a" d="M 407.5,520.5 C 407.177,495.425 407.51,470.425 408.5,445.5C 412.631,441.87 416.631,438.037 420.5,434C 431.848,433.168 443.181,433.334 454.5,434.5C 457.779,438.446 461.446,442.112 465.5,445.5C 466.666,470.827 466.833,496.16 466,521.5C 462.167,525.333 458.333,529.167 454.5,533C 442.833,533.667 431.167,533.667 419.5,533C 415.599,528.663 411.599,524.496 407.5,520.5 Z"/></g>
<g><path style="opacity:1" fill="#f5c638" d="M 469.5,433.5 C 485.503,433.333 501.503,433.5 517.5,434C 521.667,438.167 525.833,442.333 530,446.5C 530.667,471.167 530.667,495.833 530,520.5C 525.833,524.667 521.667,528.833 517.5,533C 501.503,533.5 485.503,533.667 469.5,533.5C 470.489,516.857 471.156,500.19 471.5,483.5C 471.156,466.81 470.489,450.143 469.5,433.5 Z"/></g>
<g><path style="opacity:1" fill="#f7ce37" d="M 597.5,434.5 C 593.486,434.334 589.486,434.501 585.5,435C 584.167,439.333 584.167,443.667 585.5,448C 581.687,449.262 577.687,449.929 573.5,450C 579.016,450.173 584.349,450.673 589.5,451.5C 584.167,451.5 578.833,451.5 573.5,451.5C 573.5,459.167 573.5,466.833 573.5,474.5C 577.833,474.5 582.167,474.5 586.5,474.5C 584.031,475.317 581.365,475.817 578.5,476C 581.043,476.14 583.377,476.806 585.5,478C 585.553,482.74 585.219,487.574 584.5,492.5C 580.833,492.5 577.167,492.5 573.5,492.5C 573.5,500.167 573.5,507.833 573.5,515.5C 578.833,515.5 584.167,515.5 589.5,515.5C 584.349,516.327 579.016,516.827 573.5,517C 577.5,517.333 581.5,517.667 585.5,518C 584.167,522.333 584.167,526.667 585.5,531C 583.167,531.333 580.833,531.667 578.5,532C 585.158,532.5 591.825,532.666 598.5,532.5C 583.342,533.496 568.009,533.83 552.5,533.5C 552.334,528.156 552.501,522.823 553,517.5C 553.667,516.833 554.333,516.167 555,515.5C 555.667,494.167 555.667,472.833 555,451.5C 554.586,451.043 554.086,450.709 553.5,450.5C 552.505,444.872 552.171,439.206 552.5,433.5C 567.676,433.171 582.676,433.504 597.5,434.5 Z"/></g>
<g><path style="opacity:1" fill="#f3d135" d="M 654.5,514.5 C 648.916,516.295 642.916,517.129 636.5,517C 640.486,517.499 644.486,517.666 648.5,517.5C 648.5,522.167 648.5,526.833 648.5,531.5C 644.486,531.334 640.486,531.501 636.5,532C 644.827,532.5 653.16,532.666 661.5,532.5C 650.674,533.659 639.674,533.826 628.5,533C 624.333,528.833 620.167,524.667 616,520.5C 615.667,497.5 615.333,474.5 615,451.5C 614.333,450.833 613.667,450.167 613,449.5C 612.501,444.177 612.334,438.844 612.5,433.5C 620.833,433.5 629.167,433.5 637.5,433.5C 637.666,438.844 637.499,444.177 637,449.5C 636,450.167 635,450.833 634,451.5C 633.167,472.175 633.334,492.841 634.5,513.5C 635.308,513.808 635.975,514.308 636.5,515C 642.582,515.788 648.582,515.621 654.5,514.5 Z"/></g>
<g><path style="opacity:1" fill="#f8d337" d="M 597.5,434.5 C 601.798,438.296 605.964,442.296 610,446.5C 610.667,456.5 610.667,466.5 610,476.5C 607.65,478.683 605.483,481.016 603.5,483.5C 605.483,485.984 607.65,488.317 610,490.5C 610.667,500.5 610.667,510.5 610,520.5C 605.991,524.342 602.157,528.342 598.5,532.5C 591.825,532.666 585.158,532.5 578.5,532C 580.833,531.667 583.167,531.333 585.5,531C 584.167,526.667 584.167,522.333 585.5,518C 581.5,517.667 577.5,517.333 573.5,517C 579.016,516.827 584.349,516.327 589.5,515.5C 590.458,515.047 591.292,514.381 592,513.5C 593.695,505.739 592.195,498.906 587.5,493C 586.552,492.517 585.552,492.351 584.5,492.5C 585.219,487.574 585.553,482.74 585.5,478C 583.377,476.806 581.043,476.14 578.5,476C 581.365,475.817 584.031,475.317 586.5,474.5C 587.891,472.429 589.724,470.762 592,469.5C 592.667,464.167 592.667,458.833 592,453.5C 591.292,452.619 590.458,451.953 589.5,451.5C 584.349,450.673 579.016,450.173 573.5,450C 577.687,449.929 581.687,449.262 585.5,448C 584.167,443.667 584.167,439.333 585.5,435C 589.486,434.501 593.486,434.334 597.5,434.5 Z"/></g>
<g><path style="opacity:1" fill="#f3d535" d="M 661.5,532.5 C 653.16,532.666 644.827,532.5 636.5,532C 640.486,531.501 644.486,531.334 648.5,531.5C 648.5,526.833 648.5,522.167 648.5,517.5C 644.486,517.666 640.486,517.499 636.5,517C 642.916,517.129 648.916,516.295 654.5,514.5C 655.81,504.06 656.477,493.393 656.5,482.5C 656.167,472.167 655.833,461.833 655.5,451.5C 654.522,451.023 653.689,450.357 653,449.5C 652.501,444.177 652.334,438.844 652.5,433.5C 660.833,433.5 669.167,433.5 677.5,433.5C 677.666,438.844 677.499,444.177 677,449.5C 676.586,449.957 676.086,450.291 675.5,450.5C 674.667,473.826 674.167,497.16 674,520.5C 669.964,524.704 665.798,528.704 661.5,532.5 Z"/></g>
<g><path style="opacity:1" fill="#f5df33" d="M 763.5,513.5 C 768.833,513.5 774.167,513.5 779.5,513.5C 779.5,520.167 779.5,526.833 779.5,533.5C 763.5,533.5 747.5,533.5 731.5,533.5C 731.5,528.167 731.5,522.833 731.5,517.5C 732.172,516.733 733.005,516.066 734,515.5C 734.833,494.159 734.666,472.826 733.5,451.5C 732.522,451.023 731.689,450.357 731,449.5C 730.501,444.177 730.334,438.844 730.5,433.5C 738.833,433.5 747.167,433.5 755.5,433.5C 755.666,438.844 755.499,444.177 755,449.5C 754.333,450.167 753.667,450.833 753,451.5C 752.5,472.831 752.333,494.164 752.5,515.5C 755.85,515.665 759.183,515.498 762.5,515C 763.056,514.617 763.389,514.117 763.5,513.5 Z"/></g>
<g><path style="opacity:1" fill="#f5e531" d="M 779.5,433.5 C 785.425,433.192 791.259,433.525 797,434.5C 800.607,445.322 804.607,455.988 809,466.5C 813.006,455.823 817.006,445.157 821,434.5C 826.407,433.527 831.907,433.193 837.5,433.5C 837.829,439.206 837.495,444.872 836.5,450.5C 834.866,450.968 833.7,451.968 833,453.5C 828.527,466.587 823.86,479.587 819,492.5C 818.313,506.327 818.813,519.994 820.5,533.5C 812.5,533.5 804.5,533.5 796.5,533.5C 796.334,528.156 796.501,522.823 797,517.5C 797.667,516.833 798.333,516.167 799,515.5C 799.667,508.833 799.667,502.167 799,495.5C 794.398,481.027 789.398,466.694 784,452.5C 782.488,451.743 781.154,450.743 780,449.5C 779.501,444.177 779.334,438.844 779.5,433.5 Z"/></g>
<g><path style="opacity:1" fill="#2d2612" d="M 405.5,446.5 C 406.209,445.596 407.209,445.263 408.5,445.5C 407.51,470.425 407.177,495.425 407.5,520.5C 406.833,495.833 406.167,471.167 405.5,446.5 Z"/></g>
<g><path style="opacity:1" fill="#ac7f2d" d="M 344.5,450.5 C 344.56,449.957 344.893,449.624 345.5,449.5C 346.5,473.157 346.833,496.824 346.5,520.5C 345.833,497.167 345.167,473.833 344.5,450.5 Z"/></g>
<g><path style="opacity:1" fill="#413c15" d="M 701.5,451.5 C 701.5,472.5 701.5,493.5 701.5,514.5C 704.5,514.5 707.5,514.5 710.5,514.5C 707.375,515.479 704.042,515.813 700.5,515.5C 700.169,493.993 700.503,472.66 701.5,451.5 Z"/></g>
<g><path style="opacity:1" fill="#0d0d0d" d="M 384.5,451.5 C 384.783,452.289 385.283,452.956 386,453.5C 386.667,473.5 386.667,493.5 386,513.5C 385.283,514.044 384.783,514.711 384.5,515.5C 378.491,515.666 372.491,515.499 366.5,515C 366,514.5 365.5,514 365,513.5C 364.333,493.5 364.333,473.5 365,453.5C 365.5,453 366,452.5 366.5,452C 372.491,451.501 378.491,451.334 384.5,451.5 Z"/></g>
<g><path style="opacity:1" fill="#0f0e0d" d="M 427.5,451.5 C 433.842,451.334 440.175,451.5 446.5,452C 447,452.5 447.5,453 448,453.5C 448.667,473.5 448.667,493.5 448,513.5C 447.5,514 447,514.5 446.5,515C 440.167,515.667 433.833,515.667 427.5,515C 427,514.5 426.5,514 426,513.5C 425.333,493.5 425.333,473.5 426,453.5C 426.717,452.956 427.217,452.289 427.5,451.5 Z"/></g>
<g><path style="opacity:1" fill="#12100e" d="M 490.5,451.5 C 497.713,450.922 504.713,451.588 511.5,453.5C 512.833,473.5 512.833,493.5 511.5,513.5C 504.713,515.412 497.713,516.078 490.5,515.5C 490.5,494.167 490.5,472.833 490.5,451.5 Z"/></g>
<g><path style="opacity:1" fill="#11100d" d="M 589.5,451.5 C 590.458,451.953 591.292,452.619 592,453.5C 592.667,458.833 592.667,464.167 592,469.5C 589.724,470.762 587.891,472.429 586.5,474.5C 582.167,474.5 577.833,474.5 573.5,474.5C 573.5,466.833 573.5,459.167 573.5,451.5C 578.833,451.5 584.167,451.5 589.5,451.5 Z"/></g>
<g><path style="opacity:1" fill="#f7dc35" d="M 701.5,451.5 C 700.503,472.66 700.169,493.993 700.5,515.5C 704.042,515.813 707.375,515.479 710.5,514.5C 711.289,514.217 711.956,513.717 712.5,513C 717.823,512.501 723.156,512.334 728.5,512.5C 728.5,519.5 728.5,526.5 728.5,533.5C 712.167,533.5 695.833,533.5 679.5,533.5C 679.334,528.156 679.501,522.823 680,517.5C 680.667,516.833 681.333,516.167 682,515.5C 682.667,494.167 682.667,472.833 682,451.5C 681.333,450.833 680.667,450.167 680,449.5C 679.501,444.177 679.334,438.844 679.5,433.5C 687.5,433.5 695.5,433.5 703.5,433.5C 703.666,438.844 703.499,444.177 703,449.5C 702.283,450.044 701.783,450.711 701.5,451.5 Z"/></g>
<g><path style="opacity:1" fill="#11100d" d="M 584.5,492.5 C 585.552,492.351 586.552,492.517 587.5,493C 592.195,498.906 593.695,505.739 592,513.5C 591.292,514.381 590.458,515.047 589.5,515.5C 584.167,515.5 578.833,515.5 573.5,515.5C 573.5,507.833 573.5,500.167 573.5,492.5C 577.167,492.5 580.833,492.5 584.5,492.5 Z"/></g>
<g><path style="opacity:1" fill="#a89b26" d="M 763.5,513.5 C 768.975,512.511 774.642,512.178 780.5,512.5C 780.5,519.5 780.5,526.5 780.5,533.5C 780.167,533.5 779.833,533.5 779.5,533.5C 779.5,526.833 779.5,520.167 779.5,513.5C 774.167,513.5 768.833,513.5 763.5,513.5 Z"/></g>
<g><path style="opacity:1" fill="#5b5419" d="M 731.5,517.5 C 731.5,522.833 731.5,528.167 731.5,533.5C 747.5,533.5 763.5,533.5 779.5,533.5C 779.833,533.5 780.167,533.5 780.5,533.5C 764.008,534.497 747.342,534.83 730.5,534.5C 730.178,528.642 730.511,522.975 731.5,517.5 Z"/></g>
<g><path style="opacity:1" fill="#c49032" d="M 357.5,565.5 C 367.653,564.506 377.986,564.172 388.5,564.5C 388.5,567.833 388.5,571.167 388.5,574.5C 388.167,574.5 387.833,574.5 387.5,574.5C 387.5,571.5 387.5,568.5 387.5,565.5C 377.5,565.5 367.5,565.5 357.5,565.5 Z"/></g>
<g><path style="opacity:1" fill="#f5af3d" d="M 315.5,564.5 C 322.841,564.334 330.174,564.5 337.5,565C 347.534,567.368 352.867,573.701 353.5,584C 353.875,594.925 348.875,601.925 338.5,605C 330.841,605.5 323.174,605.666 315.5,605.5C 315.5,591.833 315.5,578.167 315.5,564.5 Z"/></g>
<g><path style="opacity:1" fill="#f1bc39" d="M 464.5,584.5 C 471.833,584.5 479.167,584.5 486.5,584.5C 486.5,586.167 486.5,587.833 486.5,589.5C 483.863,599.939 477.029,605.606 466,606.5C 452.815,605.315 445.648,598.148 444.5,585C 445.17,575.645 449.837,568.978 458.5,565C 469.501,562.429 478.335,565.595 485,574.5C 486.202,576.677 486.702,579.011 486.5,581.5C 483.15,581.665 479.817,581.498 476.5,581C 473.214,574.95 468.214,572.95 461.5,575C 459,576.167 457.167,578 456,580.5C 454.902,594.368 460.736,598.535 473.5,593C 470.518,592.502 467.518,592.335 464.5,592.5C 464.5,589.833 464.5,587.167 464.5,584.5 Z"/></g>
<g><path style="opacity:1" fill="#f2ca36" d="M 565.5,563.5 C 577.098,563.903 581.598,569.57 579,580.5C 577.315,582.017 575.815,583.684 574.5,585.5C 575.48,586.981 576.647,588.315 578,589.5C 580.185,588.072 582.185,586.405 584,584.5C 585.815,586.405 587.815,588.072 590,589.5C 590.667,590.5 590.667,591.5 590,592.5C 588.315,594.017 586.815,595.684 585.5,597.5C 587.65,600.151 589.983,602.651 592.5,605C 587.833,605.667 583.167,605.667 578.5,605C 577.953,604.075 577.287,603.242 576.5,602.5C 568.3,608.156 560.466,607.822 553,601.5C 550.247,597.667 549.914,593.667 552,589.5C 554.233,587.267 556.4,585.1 558.5,583C 556.613,579.015 556.113,574.848 557,570.5C 559.441,567.546 562.275,565.213 565.5,563.5 Z"/></g>
<g><path style="opacity:1" fill="#a99d26" d="M 764.5,565.5 C 757.167,565.5 749.833,565.5 742.5,565.5C 742.5,578.833 742.5,592.167 742.5,605.5C 741.504,592.01 741.171,578.344 741.5,564.5C 749.352,564.175 757.018,564.508 764.5,565.5 Z"/></g>
<g><path style="opacity:1" fill="#f6e732" d="M 764.5,565.5 C 771.445,566.389 776.279,570.055 779,576.5C 779.87,582.917 779.536,589.251 778,595.5C 775.168,600.994 770.668,604.161 764.5,605C 757.174,605.5 749.841,605.666 742.5,605.5C 742.5,592.167 742.5,578.833 742.5,565.5C 749.833,565.5 757.167,565.5 764.5,565.5 Z"/></g>
<g><path style="opacity:1" fill="#f9b63e" d="M 357.5,565.5 C 367.5,565.5 377.5,565.5 387.5,565.5C 387.5,568.5 387.5,571.5 387.5,574.5C 380.833,574.5 374.167,574.5 367.5,574.5C 367.5,576.833 367.5,579.167 367.5,581.5C 372.167,581.5 376.833,581.5 381.5,581.5C 381.5,584.167 381.5,586.833 381.5,589.5C 376.637,589.181 371.97,589.514 367.5,590.5C 367.5,592.167 367.5,593.833 367.5,595.5C 374.5,595.5 381.5,595.5 388.5,595.5C 388.5,598.833 388.5,602.167 388.5,605.5C 378.167,605.5 367.833,605.5 357.5,605.5C 357.5,592.167 357.5,578.833 357.5,565.5 Z"/></g>
<g><path style="opacity:1" fill="#f6c638" d="M 516.5,585.5 C 516.783,586.289 517.283,586.956 518,587.5C 518.5,579.841 518.666,572.174 518.5,564.5C 521.833,564.5 525.167,564.5 528.5,564.5C 528.5,578.167 528.5,591.833 528.5,605.5C 525.482,605.665 522.482,605.498 519.5,605C 513.667,597.833 507.833,590.667 502,583.5C 501.5,590.826 501.334,598.159 501.5,605.5C 498.167,605.5 494.833,605.5 491.5,605.5C 491.5,591.833 491.5,578.167 491.5,564.5C 494.518,564.335 497.518,564.502 500.5,565C 506.048,571.709 511.381,578.542 516.5,585.5 Z"/></g>
<g><path style="opacity:1" fill="#4e4018" d="M 518.5,564.5 C 518.666,572.174 518.5,579.841 518,587.5C 517.283,586.956 516.783,586.289 516.5,585.5C 517.167,578.5 517.833,571.5 518.5,564.5 Z"/></g>
<g><path style="opacity:1" fill="#c6ad2d" d="M 638.5,565.5 C 630.833,565.5 623.167,565.5 615.5,565.5C 615.5,578.833 615.5,592.167 615.5,605.5C 614.504,592.01 614.171,578.344 614.5,564.5C 622.684,564.174 630.684,564.508 638.5,565.5 Z"/></g>
<g><path style="opacity:1" fill="#ecd732" d="M 693.5,564.5 C 697.167,564.5 700.833,564.5 704.5,564.5C 704.5,578.167 704.5,591.833 704.5,605.5C 700.833,605.5 697.167,605.5 693.5,605.5C 693.5,591.833 693.5,578.167 693.5,564.5 Z"/></g>
<g><path style="opacity:1" fill="#eeda32" d="M 707.5,564.5 C 711.167,564.5 714.833,564.5 718.5,564.5C 718.5,574.833 718.5,585.167 718.5,595.5C 724.833,595.5 731.167,595.5 737.5,595.5C 737.5,598.833 737.5,602.167 737.5,605.5C 727.5,605.5 717.5,605.5 707.5,605.5C 707.5,591.833 707.5,578.167 707.5,564.5 Z"/></g>
<g><path style="opacity:1" fill="#b58b2d" d="M 439.5,605.5 C 439.5,592.167 439.5,578.833 439.5,565.5C 436.5,565.5 433.5,565.5 430.5,565.5C 430.5,578.833 430.5,592.167 430.5,605.5C 429.504,592.01 429.171,578.344 429.5,564.5C 433.167,564.5 436.833,564.5 440.5,564.5C 440.829,578.344 440.496,592.01 439.5,605.5 Z"/></g>
<g><path style="opacity:1" fill="#fabf3c" d="M 439.5,605.5 C 436.5,605.5 433.5,605.5 430.5,605.5C 430.5,592.167 430.5,578.833 430.5,565.5C 433.5,565.5 436.5,565.5 439.5,565.5C 439.5,578.833 439.5,592.167 439.5,605.5 Z"/></g>
<g><path style="opacity:1" fill="#f1d733" d="M 652.5,564.5 C 655.833,564.5 659.167,564.5 662.5,564.5C 662.334,573.173 662.5,581.84 663,590.5C 665.913,595.689 670.08,596.856 675.5,594C 676.701,593.097 677.535,591.931 678,590.5C 678.5,581.84 678.666,573.173 678.5,564.5C 682.167,564.5 685.833,564.5 689.5,564.5C 689.895,574.566 689.395,584.566 688,594.5C 684.53,601.823 678.697,605.49 670.5,605.5C 662.831,605.589 657.331,602.255 654,595.5C 652.574,585.246 652.074,574.912 652.5,564.5 Z"/></g>
<g><path style="opacity:1" fill="#1e1a11" d="M 566.5,573.5 C 568.167,573.5 569.833,573.5 571.5,573.5C 570.75,578.89 568.75,579.557 565.5,575.5C 565.863,574.817 566.196,574.15 566.5,573.5 Z"/></g>
<g><path style="opacity:1" fill="#f7d836" d="M 638.5,565.5 C 647.119,567.483 649.952,572.817 647,581.5C 645.833,582.667 644.667,583.833 643.5,585C 644.667,586.167 645.833,587.333 647,588.5C 649.918,597.123 647.084,602.623 638.5,605C 630.841,605.5 623.174,605.666 615.5,605.5C 615.5,592.167 615.5,578.833 615.5,565.5C 623.167,565.5 630.833,565.5 638.5,565.5 Z"/></g>
<g><path style="opacity:1" fill="#403317" d="M 335.5,575.5 C 332.5,575.5 329.5,575.5 326.5,575.5C 326.5,581.833 326.5,588.167 326.5,594.5C 329.5,594.5 332.5,594.5 335.5,594.5C 332.375,595.479 329.042,595.813 325.5,595.5C 325.5,588.5 325.5,581.5 325.5,574.5C 329.042,574.187 332.375,574.521 335.5,575.5 Z"/></g>
<g><path style="opacity:1" fill="#100f0d" d="M 335.5,575.5 C 340.184,576.354 342.517,579.187 342.5,584C 342.238,586.547 341.738,589.047 341,591.5C 339.736,593.607 337.903,594.607 335.5,594.5C 332.5,594.5 329.5,594.5 326.5,594.5C 326.5,588.167 326.5,581.833 326.5,575.5C 329.5,575.5 332.5,575.5 335.5,575.5 Z"/></g>
<g><path style="opacity:1" fill="#14120e" d="M 625.5,574.5 C 629.182,574.335 632.848,574.501 636.5,575C 637.98,577.235 637.647,579.068 635.5,580.5C 632.167,580.5 628.833,580.5 625.5,580.5C 625.5,578.5 625.5,576.5 625.5,574.5 Z"/></g>
<g><path style="opacity:1" fill="#aaa026" d="M 762.5,575.5 C 759.167,575.5 755.833,575.5 752.5,575.5C 752.5,582.167 752.5,588.833 752.5,595.5C 751.509,588.687 751.175,581.687 751.5,574.5C 755.371,574.185 759.038,574.518 762.5,575.5 Z"/></g>
<g><path style="opacity:1" fill="#13120e" d="M 762.5,575.5 C 770.039,579.277 771.539,584.943 767,592.5C 762.568,595.165 757.734,596.165 752.5,595.5C 752.5,588.833 752.5,582.167 752.5,575.5C 755.833,575.5 759.167,575.5 762.5,575.5 Z"/></g>
<g><path style="opacity:1" fill="#70641d" d="M 625.5,574.5 C 625.5,576.5 625.5,578.5 625.5,580.5C 628.833,580.5 632.167,580.5 635.5,580.5C 632.038,581.482 628.371,581.815 624.5,581.5C 624.198,578.941 624.532,576.607 625.5,574.5 Z"/></g>
<g><path style="opacity:1" fill="#926d27" d="M 387.5,574.5 C 387.833,574.5 388.167,574.5 388.5,574.5C 382.021,575.491 375.354,575.824 368.5,575.5C 368.5,577.167 368.5,578.833 368.5,580.5C 373.167,580.5 377.833,580.5 382.5,580.5C 382.5,583.833 382.5,587.167 382.5,590.5C 377.833,590.5 373.167,590.5 368.5,590.5C 368.167,590.5 367.833,590.5 367.5,590.5C 371.97,589.514 376.637,589.181 381.5,589.5C 381.5,586.833 381.5,584.167 381.5,581.5C 376.833,581.5 372.167,581.5 367.5,581.5C 367.5,579.167 367.5,576.833 367.5,574.5C 374.167,574.5 380.833,574.5 387.5,574.5 Z"/></g>
<g><path style="opacity:1" fill="#f3b73b" d="M 401.5,564.5 C 407.762,563.872 413.762,564.705 419.5,567C 423.994,569.887 425.661,574.054 424.5,579.5C 421.5,579.5 418.5,579.5 415.5,579.5C 415.607,577.097 414.607,575.264 412.5,574C 409.833,573.333 407.167,573.333 404.5,574C 403.273,575.587 403.606,576.921 405.5,578C 412.309,579.987 418.475,583.154 424,587.5C 427.403,600.123 422.403,606.456 409,606.5C 398.764,606.423 393.264,601.423 392.5,591.5C 395.833,591.5 399.167,591.5 402.5,591.5C 403.797,596.655 407.13,598.488 412.5,597C 413.357,596.311 414.023,595.478 414.5,594.5C 409.916,591.349 404.916,588.849 399.5,587C 397,585.833 395.167,584 394,581.5C 393.333,577.833 393.333,574.167 394,570.5C 396.114,567.879 398.614,565.879 401.5,564.5 Z"/></g>
<g><path style="opacity:1" fill="#614c1c" d="M 464.5,584.5 C 471.982,583.508 479.648,583.175 487.5,583.5C 487.795,585.735 487.461,587.735 486.5,589.5C 486.5,587.833 486.5,586.167 486.5,584.5C 479.167,584.5 471.833,584.5 464.5,584.5 Z"/></g>
<g><path style="opacity:1" fill="#8a7722" d="M 635.5,589.5 C 632.167,589.5 628.833,589.5 625.5,589.5C 625.5,591.5 625.5,593.5 625.5,595.5C 624.532,593.393 624.198,591.059 624.5,588.5C 628.371,588.185 632.038,588.518 635.5,589.5 Z"/></g>
<g><path style="opacity:1" fill="#14120e" d="M 635.5,589.5 C 637.647,590.932 637.98,592.765 636.5,595C 632.848,595.499 629.182,595.665 625.5,595.5C 625.5,593.5 625.5,591.5 625.5,589.5C 628.833,589.5 632.167,589.5 635.5,589.5 Z"/></g>
<g><path style="opacity:1" fill="#18160f" d="M 563.5,590.5 C 571.635,594.416 571.302,596.249 562.5,596C 561.156,593.856 561.49,592.023 563.5,590.5 Z"/></g>
<g><path style="opacity:1" fill="#483718" d="M 367.5,590.5 C 367.833,590.5 368.167,590.5 368.5,590.5C 368.5,591.833 368.5,593.167 368.5,594.5C 375.354,594.176 382.021,594.509 388.5,595.5C 381.5,595.5 374.5,595.5 367.5,595.5C 367.5,593.833 367.5,592.167 367.5,590.5 Z"/></g>
</svg>
